<svg width="34" height="32" viewBox="0 0 34 32" fill="none" xmlns="http://www.w3.org/2000/svg">
<path d="M14.4643 30.0456C15.3248 30.0456 16.0224 29.348 16.0224 28.4875C16.0224 27.627 15.3248 26.9294 14.4643 26.9294C13.6038 26.9294 12.9062 27.627 12.9062 28.4875C12.9062 29.348 13.6038 30.0456 14.4643 30.0456Z" stroke="#274C5B" stroke-width="2.12" stroke-linecap="round" stroke-linejoin="round"/>
<path d="M25.3711 30.0456C26.2316 30.0456 26.9291 29.348 26.9291 28.4875C26.9291 27.627 26.2316 26.9294 25.3711 26.9294C24.5106 26.9294 23.813 27.627 23.813 28.4875C23.813 29.348 24.5106 30.0456 25.3711 30.0456Z" stroke="#274C5B" stroke-width="2.12" stroke-linecap="round" stroke-linejoin="round"/>
<path d="M2 2H6.82113L10.437 22.4898H29.7215" stroke="#274C5B" stroke-width="2.5" stroke-linecap="round" stroke-linejoin="round"/>
<path d="M9.79031 17.5316L29.2273 17.668C29.3667 17.6681 29.5018 17.6199 29.6096 17.5316C29.7174 17.4433 29.7913 17.3203 29.8186 17.1837L31.9881 6.33614C32.0056 6.24867 32.0035 6.15841 31.9819 6.07186C31.9603 5.98532 31.9197 5.90465 31.8632 5.83568C31.8066 5.76671 31.7354 5.71116 31.6548 5.67304C31.5741 5.63491 31.486 5.61517 31.3968 5.61523L7.82225 5.61523" stroke="#274C5B" stroke-width="2.5" stroke-linecap="round" stroke-linejoin="round"/>
</svg>
