<svg width="43" height="43" viewBox="0 0 43 43" fill="none" xmlns="http://www.w3.org/2000/svg">
<circle cx="21.5933" cy="21.5" r="21" fill="#274C5B"/>
<path d="M19.1764 29.7501C19.6827 29.7501 20.0931 29.3397 20.0931 28.8334C20.0931 28.3272 19.6827 27.9167 19.1764 27.9167C18.6702 27.9167 18.2598 28.3272 18.2598 28.8334C18.2598 29.3397 18.6702 29.7501 19.1764 29.7501Z" fill="white" stroke="white" stroke-width="1.125" stroke-linecap="round" stroke-linejoin="round"/>
<path d="M25.5934 29.7501C26.0997 29.7501 26.5101 29.3397 26.5101 28.8334C26.5101 28.3272 26.0997 27.9167 25.5934 27.9167C25.0872 27.9167 24.6768 28.3272 24.6768 28.8334C24.6768 29.3397 25.0872 29.7501 25.5934 29.7501Z" fill="white" stroke="white" stroke-width="1.125" stroke-linecap="round" stroke-linejoin="round"/>
<path d="M11.8433 13.25H14.6797L16.807 25.3048H28.1527" stroke="white" stroke-width="1.5" stroke-linecap="round" stroke-linejoin="round"/>
<path d="M16.4264 22.3877L27.8618 22.468C27.9438 22.4681 28.0233 22.4397 28.0867 22.3877C28.1502 22.3358 28.1936 22.2634 28.2097 22.183L29.4861 15.8011C29.4964 15.7496 29.4951 15.6965 29.4824 15.6456C29.4697 15.5947 29.4459 15.5472 29.4126 15.5066C29.3793 15.4661 29.3374 15.4334 29.29 15.411C29.2425 15.3885 29.1907 15.3769 29.1382 15.377L15.2685 15.377" stroke="white" stroke-width="1.5" stroke-linecap="round" stroke-linejoin="round"/>
</svg>
