<svg width="45" height="46" viewBox="0 0 45 46" fill="none" xmlns="http://www.w3.org/2000/svg">
<circle cx="22.5" cy="22.5371" r="22.5" fill="#EFF6F1"/>
<path fill-rule="evenodd" clip-rule="evenodd" d="M29.4621 22.7504C29.4621 18.905 26.2243 15.7871 22.2311 15.7871C18.2378 15.7871 15 18.905 15 22.7504C15 26.2258 17.6439 29.1065 21.1012 29.6294V24.7638H19.2647V22.7504H21.1012V21.2163C21.1012 19.4714 22.181 18.5068 23.8325 18.5068C24.6238 18.5068 25.4515 18.643 25.4515 18.643V20.3567H24.5392C23.6414 20.3567 23.3606 20.8933 23.3606 21.4447V22.7504H25.3659L25.0457 24.7638H23.3609V29.63C26.8183 29.1074 29.4621 26.2267 29.4621 22.7504Z" fill="#274C5B"/>
</svg>
