<svg width="46" height="46" viewBox="0 0 46 46" fill="none" xmlns="http://www.w3.org/2000/svg">
<circle cx="23.25" cy="22.5371" r="22.5" fill="#EFF6F1"/>
<path d="M25.9939 16.9475C26.7923 16.9498 27.5573 17.2563 28.1219 17.7999C28.6864 18.3436 29.0047 19.0803 29.007 19.8491V25.6516C29.0047 26.4204 28.6864 27.1571 28.1219 27.7008C27.5573 28.2444 26.7923 28.5509 25.9939 28.5532H19.9682C19.1698 28.5509 18.4048 28.2444 17.8402 27.7008C17.2757 27.1571 16.9575 26.4204 16.9551 25.6516V19.8491C16.9575 19.0803 17.2757 18.3436 17.8402 17.7999C18.4048 17.2563 19.1698 16.9498 19.9682 16.9475H25.9939ZM25.9939 15.7871H19.9682C17.6482 15.7871 15.75 17.615 15.75 19.8491V25.6516C15.75 27.8857 17.6482 29.7136 19.9682 29.7136H25.9939C28.314 29.7136 30.2121 27.8857 30.2121 25.6516V19.8491C30.2121 17.615 28.314 15.7871 25.9939 15.7871Z" fill="#274C5B"/>
<path d="M26.898 19.8492C26.7192 19.8492 26.5444 19.7982 26.3958 19.7025C26.2472 19.6069 26.1313 19.4709 26.0629 19.3119C25.9945 19.1528 25.9766 18.9778 26.0115 18.809C26.0463 18.6402 26.1324 18.4851 26.2588 18.3633C26.3852 18.2416 26.5463 18.1587 26.7216 18.1251C26.897 18.0915 27.0787 18.1088 27.2439 18.1747C27.409 18.2405 27.5502 18.3521 27.6495 18.4952C27.7488 18.6384 27.8019 18.8067 27.8019 18.9788C27.8021 19.0932 27.7789 19.2065 27.7336 19.3122C27.6882 19.4179 27.6217 19.5139 27.5377 19.5948C27.4537 19.6757 27.354 19.7398 27.2442 19.7835C27.1344 19.8271 27.0167 19.8495 26.898 19.8492ZM22.9813 20.4293C23.458 20.4293 23.924 20.5654 24.3204 20.8205C24.7168 21.0755 25.0258 21.438 25.2082 21.8622C25.3907 22.2863 25.4384 22.753 25.3454 23.2033C25.2524 23.6536 25.0228 24.0672 24.6857 24.3918C24.3486 24.7164 23.9191 24.9375 23.4515 25.027C22.9839 25.1166 22.4993 25.0706 22.0588 24.895C21.6184 24.7193 21.2419 24.4218 20.977 24.04C20.7122 23.6583 20.5708 23.2095 20.5708 22.7505C20.5715 22.135 20.8257 21.545 21.2776 21.1099C21.7295 20.6747 22.3422 20.4299 22.9813 20.4293ZM22.9813 19.2688C22.2662 19.2688 21.5671 19.473 20.9726 19.8556C20.378 20.2382 19.9146 20.7819 19.6409 21.4181C19.3673 22.0543 19.2957 22.7543 19.4352 23.4297C19.5747 24.1051 19.919 24.7254 20.4247 25.2123C20.9303 25.6992 21.5746 26.0308 22.2759 26.1652C22.9772 26.2995 23.7042 26.2306 24.3649 25.9671C25.0255 25.7035 25.5902 25.2573 25.9875 24.6847C26.3847 24.1122 26.5968 23.4391 26.5968 22.7505C26.5968 21.8271 26.2159 20.9415 25.5378 20.2886C24.8598 19.6356 23.9402 19.2688 22.9813 19.2688Z" fill="#274C5B"/>
</svg>
