<svg width="151" height="43" viewBox="0 0 151 43" fill="none" xmlns="http://www.w3.org/2000/svg">
<path d="M53.5459 20.771V21.7312C53.5459 23.2712 53.3372 24.6536 52.9197 25.8782C52.5022 27.1028 51.9131 28.1465 51.1523 29.0093C50.3916 29.8628 49.4824 30.5168 48.4248 30.9714C47.3765 31.426 46.2122 31.6533 44.9319 31.6533C43.6609 31.6533 42.4966 31.426 41.439 30.9714C40.3906 30.5168 39.4814 29.8628 38.7114 29.0093C37.9414 28.1465 37.343 27.1028 36.9163 25.8782C36.4988 24.6536 36.29 23.2712 36.29 21.7312V20.771C36.29 19.2217 36.4988 17.8394 36.9163 16.624C37.3337 15.3994 37.9229 14.3557 38.6836 13.4929C39.4536 12.6301 40.3628 11.9714 41.4111 11.5168C42.4687 11.0623 43.6331 10.835 44.9041 10.835C46.1843 10.835 47.3486 11.0623 48.397 11.5168C49.4546 11.9714 50.3638 12.6301 51.1245 13.4929C51.8945 14.3557 52.4883 15.3994 52.9058 16.624C53.3325 17.8394 53.5459 19.2217 53.5459 20.771ZM49.3293 21.7312V20.7432C49.3293 19.667 49.2319 18.7207 49.0371 17.9043C48.8423 17.0879 48.5547 16.4014 48.1743 15.8447C47.7939 15.2881 47.3301 14.8706 46.7827 14.5923C46.2354 14.3047 45.6091 14.1609 44.9041 14.1609C44.199 14.1609 43.5728 14.3047 43.0254 14.5923C42.4873 14.8706 42.0281 15.2881 41.6477 15.8447C41.2766 16.4014 40.9937 17.0879 40.7988 17.9043C40.604 18.7207 40.5066 19.667 40.5066 20.7432V21.7312C40.5066 22.7981 40.604 23.7444 40.7988 24.5701C40.9937 25.3865 41.2812 26.0776 41.6616 26.6436C42.042 27.2002 42.5059 27.6223 43.0532 27.9099C43.6006 28.1975 44.2268 28.3413 44.9319 28.3413C45.637 28.3413 46.2632 28.1975 46.8105 27.9099C47.3579 27.6223 47.8171 27.2002 48.1882 26.6436C48.5593 26.0776 48.8423 25.3865 49.0371 24.5701C49.2319 23.7444 49.3293 22.7981 49.3293 21.7312ZM60.3091 19.6021V31.375H56.3013V16.3179H60.0725L60.3091 19.6021ZM64.8457 16.2205L64.7761 19.936C64.5813 19.9082 64.3447 19.885 64.0664 19.8665C63.7974 19.8386 63.5515 19.8247 63.3289 19.8247C62.7629 19.8247 62.2712 19.8989 61.8538 20.0474C61.4456 20.1865 61.1023 20.3953 60.824 20.6736C60.5549 20.9519 60.3508 21.2905 60.2117 21.6895C60.0818 22.0884 60.0076 22.543 59.989 23.0532L59.1819 22.8027C59.1819 21.8286 59.2793 20.9334 59.4741 20.1169C59.6689 19.2913 59.9519 18.5723 60.323 17.96C60.7034 17.3477 61.1672 16.8745 61.7146 16.5405C62.262 16.2065 62.8882 16.0396 63.5933 16.0396C63.8159 16.0396 64.0432 16.0581 64.2751 16.0952C64.5071 16.123 64.6973 16.1648 64.8457 16.2205ZM75.9924 16.3179H79.6245V30.874C79.6245 32.2471 79.3184 33.4114 78.706 34.3669C78.103 35.3318 77.2588 36.0601 76.1733 36.5518C75.0879 37.0527 73.8262 37.3032 72.3882 37.3032C71.7573 37.3032 71.0894 37.2197 70.3843 37.0527C69.6885 36.8857 69.0205 36.626 68.3804 36.2734C67.7495 35.9209 67.2207 35.4756 66.7939 34.9375L68.5613 32.5718C69.0251 33.1099 69.5632 33.5273 70.1755 33.8242C70.7878 34.1304 71.4651 34.2834 72.2073 34.2834C72.9309 34.2834 73.5432 34.1489 74.0442 33.8799C74.5452 33.6201 74.9302 33.2351 75.1992 32.7249C75.4683 32.2239 75.6028 31.6162 75.6028 30.9019V19.7969L75.9924 16.3179ZM65.8616 24.0273V23.7351C65.8616 22.5847 66.0007 21.541 66.279 20.604C66.5666 19.6577 66.9702 18.8459 67.4897 18.1687C68.0186 17.4915 68.6587 16.9673 69.4102 16.5962C70.1616 16.2251 71.0105 16.0396 71.9568 16.0396C72.9587 16.0396 73.7983 16.2251 74.4756 16.5962C75.1528 16.9673 75.7095 17.4961 76.1455 18.1826C76.5815 18.8599 76.9202 19.6624 77.1614 20.5901C77.4119 21.5085 77.6067 22.5151 77.7458 23.6099V24.25C77.6067 25.2983 77.3979 26.2725 77.1196 27.1724C76.8413 28.0723 76.4748 28.8608 76.0203 29.5381C75.5657 30.2061 74.9998 30.7256 74.3225 31.0967C73.6545 31.4678 72.8567 31.6533 71.929 31.6533C71.0012 31.6533 70.1616 31.4631 69.4102 31.0828C68.668 30.7024 68.0325 30.1689 67.5037 29.4824C66.9748 28.7959 66.5666 27.9888 66.279 27.061C66.0007 26.1333 65.8616 25.1221 65.8616 24.0273ZM69.8694 23.7351V24.0273C69.8694 24.6489 69.9297 25.2288 70.0503 25.7668C70.1709 26.3049 70.3564 26.7827 70.6069 27.2002C70.8667 27.6084 71.1868 27.9285 71.5671 28.1604C71.9568 28.3831 72.416 28.4944 72.9448 28.4944C73.6777 28.4944 74.2761 28.3413 74.74 28.0352C75.2039 27.7197 75.5518 27.2883 75.7837 26.741C76.0156 26.1936 76.1501 25.5627 76.1873 24.8484V23.0254C76.1687 22.4409 76.0898 21.9167 75.9507 21.4529C75.8115 20.9797 75.6167 20.5762 75.3662 20.2422C75.1157 19.9082 74.791 19.6484 74.3921 19.4629C73.9932 19.2773 73.52 19.1846 72.9727 19.1846C72.4438 19.1846 71.9846 19.3052 71.595 19.5464C71.2146 19.7783 70.8945 20.0984 70.6348 20.5066C70.3843 20.9148 70.1941 21.3972 70.0642 21.9539C69.9343 22.5012 69.8694 23.095 69.8694 23.7351ZM90.8686 27.9795V21.272C90.8686 20.7896 90.7898 20.3767 90.6321 20.0334C90.4744 19.6809 90.2285 19.4072 89.8945 19.2124C89.5698 19.0176 89.1477 18.9202 88.6282 18.9202C88.1829 18.9202 87.7978 18.999 87.4731 19.1567C87.1484 19.3052 86.8979 19.5232 86.7217 19.8108C86.5454 20.0891 86.4573 20.4185 86.4573 20.7988H82.4495C82.4495 20.1587 82.5979 19.551 82.8948 18.9758C83.1916 18.4006 83.623 17.895 84.189 17.459C84.7549 17.0137 85.4275 16.6658 86.2068 16.4153C86.9954 16.1648 87.8767 16.0396 88.8508 16.0396C90.0198 16.0396 91.0588 16.2344 91.968 16.624C92.8772 17.0137 93.5915 17.5981 94.1111 18.3774C94.6399 19.1567 94.9043 20.1309 94.9043 21.2998V27.7429C94.9043 28.5686 94.9553 29.2458 95.0574 29.7747C95.1594 30.2942 95.3079 30.7488 95.5027 31.1384V31.375H91.4531C91.2583 30.9668 91.1099 30.4565 91.0078 29.8442C90.915 29.2227 90.8686 28.6011 90.8686 27.9795ZM91.3975 22.2043L91.4253 24.4727H89.1848C88.656 24.4727 88.1968 24.533 87.8071 24.6536C87.4175 24.7742 87.0974 24.9458 86.8469 25.1685C86.5964 25.3818 86.4109 25.6323 86.2903 25.9199C86.179 26.2075 86.1233 26.5229 86.1233 26.8662C86.1233 27.2095 86.2021 27.5203 86.3599 27.7986C86.5176 28.0676 86.7449 28.281 87.0417 28.4387C87.3386 28.5872 87.6865 28.6614 88.0854 28.6614C88.6885 28.6614 89.2126 28.5408 89.658 28.2996C90.1033 28.0583 90.4465 27.7615 90.6877 27.4089C90.9382 27.0564 91.0681 26.7224 91.0774 26.407L92.135 28.1047C91.9866 28.4851 91.7825 28.8794 91.5227 29.2876C91.2722 29.6958 90.9521 30.0808 90.5625 30.4426C90.1728 30.7952 89.7043 31.0874 89.157 31.3193C88.6096 31.542 87.9602 31.6533 87.2087 31.6533C86.2532 31.6533 85.3857 31.4631 84.6064 31.0828C83.8364 30.6931 83.2241 30.1597 82.7695 29.4824C82.3242 28.7959 82.1016 28.0166 82.1016 27.1445C82.1016 26.356 82.25 25.6555 82.5469 25.0432C82.8437 24.4309 83.2798 23.916 83.855 23.4985C84.4394 23.0718 85.1677 22.7517 86.0398 22.5383C86.9119 22.3157 87.9231 22.2043 89.0735 22.2043H91.3975ZM101.918 19.5325V31.375H97.9101V16.3179H101.667L101.918 19.5325ZM101.333 23.3176H100.248C100.248 22.2043 100.392 21.2024 100.679 20.3118C100.967 19.4119 101.371 18.6465 101.89 18.0156C102.41 17.3755 103.027 16.8884 103.741 16.5544C104.465 16.2112 105.272 16.0396 106.162 16.0396C106.867 16.0396 107.512 16.1416 108.097 16.3457C108.681 16.5498 109.182 16.8745 109.6 17.3198C110.026 17.7651 110.351 18.3542 110.574 19.0872C110.806 19.8201 110.922 20.7153 110.922 21.7729V31.375H106.886V21.759C106.886 21.0911 106.793 20.5715 106.608 20.2004C106.422 19.8293 106.148 19.5696 105.787 19.4211C105.434 19.2634 104.998 19.1846 104.479 19.1846C103.94 19.1846 103.472 19.2913 103.073 19.5046C102.683 19.718 102.359 20.0149 102.099 20.3953C101.848 20.7664 101.658 21.2024 101.528 21.7034C101.398 22.2043 101.333 22.7424 101.333 23.3176ZM118.2 16.3179V31.375H114.178V16.3179H118.2ZM113.927 12.3936C113.927 11.8091 114.132 11.3267 114.54 10.9463C114.948 10.5659 115.495 10.3757 116.182 10.3757C116.859 10.3757 117.402 10.5659 117.81 10.9463C118.228 11.3267 118.436 11.8091 118.436 12.3936C118.436 12.978 118.228 13.4605 117.81 13.8408C117.402 14.2212 116.859 14.4114 116.182 14.4114C115.495 14.4114 114.948 14.2212 114.54 13.8408C114.132 13.4605 113.927 12.978 113.927 12.3936ZM127.732 28.5222C128.224 28.5222 128.66 28.4294 129.04 28.2439C129.421 28.0491 129.718 27.78 129.931 27.4368C130.154 27.0842 130.27 26.6714 130.279 26.1982H134.05C134.041 27.2559 133.758 28.1975 133.201 29.0232C132.645 29.8396 131.898 30.4844 130.961 30.9575C130.024 31.4214 128.975 31.6533 127.816 31.6533C126.647 31.6533 125.626 31.4585 124.754 31.0688C123.891 30.6792 123.172 30.1411 122.597 29.4546C122.022 28.7588 121.591 27.9517 121.303 27.0332C121.015 26.1055 120.872 25.1128 120.872 24.0552V23.6516C120.872 22.5847 121.015 21.592 121.303 20.6736C121.591 19.7459 122.022 18.9387 122.597 18.2522C123.172 17.5564 123.891 17.0137 124.754 16.624C125.617 16.2344 126.628 16.0396 127.788 16.0396C129.022 16.0396 130.103 16.2761 131.03 16.7493C131.967 17.2224 132.7 17.8997 133.229 18.781C133.767 19.6531 134.041 20.6875 134.05 21.8843H130.279C130.27 21.3833 130.163 20.9287 129.959 20.5205C129.764 20.1123 129.476 19.7876 129.096 19.5464C128.725 19.2959 128.266 19.1707 127.718 19.1707C127.134 19.1707 126.656 19.2959 126.285 19.5464C125.914 19.7876 125.626 20.1216 125.422 20.5483C125.218 20.9658 125.074 21.4436 124.991 21.9817C124.916 22.5105 124.879 23.0671 124.879 23.6516V24.0552C124.879 24.6396 124.916 25.2009 124.991 25.739C125.065 26.2771 125.204 26.7549 125.408 27.1724C125.622 27.5898 125.914 27.9192 126.285 28.1604C126.656 28.4016 127.138 28.5222 127.732 28.5222ZM140.382 9.98609V31.375H136.374V9.98609H140.382ZM149.873 16.3179L143.332 23.7769L139.825 27.3254L138.364 24.4309L141.147 20.8962L145.058 16.3179H149.873ZM145.712 31.375L141.259 24.417L144.028 21.9956L150.332 31.375H145.712Z" fill="#274C5B"/>
<path d="M2.13818 32.0513H15.2184H28.2986" stroke="#7EB693" stroke-width="1.5" stroke-miterlimit="10"/>
<path d="M5.09326 36.875L15.2183 36.875L25.3433 36.875" stroke="#7EB693" stroke-width="1.5" stroke-miterlimit="10"/>
<path d="M14.8433 1.625L14.8433 6.875L14.8433 12.125" stroke="#7EB693" stroke-width="1.5" stroke-miterlimit="10"/>
<path d="M14.8994 11.5881V31.4118" stroke="#7EB693" stroke-width="1.5" stroke-miterlimit="10"/>
<path d="M23.1942 3.91455L14.8994 12.2277" stroke="#7EB693" stroke-width="1.5" stroke-miterlimit="10"/>
<path d="M26.3845 7.11194L14.8994 18.6225" stroke="#7EB693" stroke-width="1.5" stroke-miterlimit="10"/>
<path d="M28.2987 12.2275L14.8994 25.017" stroke="#7EB693" stroke-width="1.5" stroke-miterlimit="10"/>
<path d="M28.9367 17.9829L14.8994 32.0513" stroke="#7EB693" stroke-width="1.5" stroke-miterlimit="10"/>
<path d="M28.9365 24.3777L21.2798 32.0514" stroke="#7EB693" stroke-width="1.5" stroke-miterlimit="10"/>
<path d="M1.5 24.3777L9.15672 32.0514" stroke="#7EB693" stroke-width="1.5" stroke-miterlimit="10"/>
<path d="M7.24268 3.91455L14.8994 12.2277" stroke="#7EB693" stroke-width="1.5" stroke-miterlimit="10"/>
<path d="M4.05225 7.11194L14.8993 18.6225" stroke="#7EB693" stroke-width="1.5" stroke-miterlimit="10"/>
<path d="M2.13818 11.5881L14.8994 25.0171" stroke="#7EB693" stroke-width="1.5" stroke-miterlimit="10"/>
<path d="M1.5 17.3435L14.8993 31.4119" stroke="#7EB693" stroke-width="1.5" stroke-miterlimit="10"/>
<path d="M15.2183 41.6434C7.64264 41.6434 1.5 35.3042 1.5 27.4829V15.5171C1.5 7.69721 7.64264 1.35657 15.2183 1.35657C22.7953 1.35657 28.9366 7.69721 28.9366 15.5171V27.4829C28.9379 35.3042 22.7953 41.6434 15.2183 41.6434Z" stroke="#7EB693" stroke-width="1.5" stroke-miterlimit="10"/>
</svg>
