<svg width="62" height="62" viewBox="0 0 62 62" fill="none" xmlns="http://www.w3.org/2000/svg">
<circle cx="30.75" cy="31.25" r="30.75" fill="white"/>
<path d="M30.0084 26.5253V28.75H20.7982V26.864L25.1012 22.3047C25.504 21.8408 25.8245 21.4319 26.0625 21.0779C26.3066 20.7239 26.4836 20.4034 26.5935 20.1166C26.7034 19.8236 26.7583 19.5551 26.7583 19.3109C26.7583 18.9142 26.6942 18.5785 26.566 18.3038C26.444 18.0292 26.2639 17.8186 26.0259 17.6721C25.7878 17.5256 25.4979 17.4524 25.1561 17.4524C24.7899 17.4524 24.4756 17.547 24.2131 17.7362C23.9507 17.9254 23.7493 18.1879 23.6089 18.5236C23.4685 18.8531 23.3983 19.2285 23.3983 19.6497H20.5236C20.5236 18.8379 20.7189 18.0994 21.1095 17.4341C21.5001 16.7627 22.0464 16.2286 22.7483 15.8319C23.4502 15.4291 24.2711 15.2277 25.2111 15.2277C26.1754 15.2277 26.9841 15.3802 27.6372 15.6854C28.2903 15.9906 28.7847 16.427 29.1204 16.9946C29.4561 17.5623 29.6239 18.2458 29.6239 19.0454C29.6239 19.4971 29.5507 19.9335 29.4042 20.3546C29.2638 20.7758 29.0593 21.1938 28.7908 21.6089C28.5222 22.0239 28.1987 22.4481 27.8203 22.8815C27.4419 23.3087 27.0146 23.7604 26.5386 24.2365L24.5244 26.5253H30.0084ZM34.1741 22.7441L31.9036 22.204L32.6818 15.4199H40.3173V17.6813H35.0255L34.7051 20.4919C34.8699 20.3943 35.1293 20.2875 35.4833 20.1715C35.8373 20.0494 36.234 19.9884 36.6735 19.9884C37.3265 19.9884 37.9064 20.0891 38.413 20.2905C38.9196 20.4919 39.3468 20.7849 39.6947 21.1694C40.0487 21.5479 40.3142 22.0148 40.4912 22.5702C40.6743 23.1256 40.7659 23.7573 40.7659 24.4653C40.7659 25.0513 40.6743 25.6128 40.4912 26.1499C40.3081 26.6809 40.0273 27.157 39.6489 27.5781C39.2766 27.9932 38.8036 28.3228 38.2299 28.5669C37.6561 28.811 36.9817 28.9331 36.2065 28.9331C35.6206 28.9331 35.053 28.8446 34.5037 28.6676C33.9543 28.4906 33.46 28.2343 33.0205 27.8986C32.5872 27.5568 32.2423 27.1417 31.986 26.6534C31.7357 26.1652 31.6075 25.6158 31.6014 25.0055H34.4579C34.4884 25.3595 34.5769 25.6647 34.7234 25.921C34.8699 26.1713 35.0682 26.3666 35.3185 26.507C35.5687 26.6412 35.8586 26.7084 36.1882 26.7084C36.5056 26.7084 36.7742 26.6473 36.9939 26.5253C37.2136 26.3971 37.3876 26.2231 37.5157 26.0034C37.65 25.7837 37.7477 25.5273 37.8087 25.2344C37.8698 24.9414 37.9003 24.6271 37.9003 24.2914C37.9003 23.9435 37.8606 23.6322 37.7812 23.3575C37.7019 23.0768 37.5798 22.8387 37.415 22.6434C37.2502 22.442 37.0397 22.2894 36.7833 22.1857C36.5331 22.0758 36.231 22.0209 35.877 22.0209C35.4131 22.0209 35.0499 22.0972 34.7875 22.2498C34.525 22.4023 34.3206 22.5671 34.1741 22.7441ZM27.1392 36.0859V46.75H24.7588L20.7305 39.8579V46.75H18.3428V36.0859H20.7305L24.7661 42.978V36.0859H27.1392ZM28.4575 42.8682V42.7144C28.4575 42.1333 28.5405 41.5986 28.7065 41.1104C28.8726 40.6172 29.1167 40.1899 29.439 39.8286C29.7612 39.4673 30.1567 39.1865 30.6255 38.9863C31.0942 38.7812 31.6313 38.6787 32.2368 38.6787C32.8521 38.6787 33.394 38.7812 33.8628 38.9863C34.3364 39.1865 34.7344 39.4673 35.0566 39.8286C35.3789 40.1899 35.623 40.6172 35.7891 41.1104C35.9551 41.5986 36.0381 42.1333 36.0381 42.7144V42.8682C36.0381 43.4443 35.9551 43.979 35.7891 44.4722C35.623 44.9604 35.3789 45.3877 35.0566 45.7539C34.7344 46.1152 34.3389 46.396 33.8701 46.5962C33.4014 46.7964 32.8618 46.8965 32.2515 46.8965C31.646 46.8965 31.1064 46.7964 30.6328 46.5962C30.1592 46.396 29.7612 46.1152 29.439 45.7539C29.1167 45.3877 28.8726 44.9604 28.7065 44.4722C28.5405 43.979 28.4575 43.4443 28.4575 42.8682ZM30.75 42.7144V42.8682C30.75 43.1807 30.7744 43.4736 30.8232 43.7471C30.877 44.0205 30.9624 44.2598 31.0796 44.4648C31.1968 44.6699 31.3506 44.8311 31.541 44.9482C31.7363 45.0605 31.9731 45.1167 32.2515 45.1167C32.5298 45.1167 32.7642 45.0605 32.9546 44.9482C33.145 44.8311 33.2988 44.6699 33.416 44.4648C33.5332 44.2598 33.6162 44.0205 33.665 43.7471C33.7188 43.4736 33.7456 43.1807 33.7456 42.8682V42.7144C33.7456 42.4067 33.7188 42.1187 33.665 41.8501C33.6162 41.5767 33.5332 41.335 33.416 41.125C33.2988 40.915 33.1426 40.7515 32.9473 40.6343C32.7568 40.5171 32.52 40.4585 32.2368 40.4585C31.9634 40.4585 31.7314 40.5171 31.541 40.6343C31.3506 40.7515 31.1968 40.915 31.0796 41.125C30.9624 41.335 30.877 41.5767 30.8232 41.8501C30.7744 42.1187 30.75 42.4067 30.75 42.7144ZM39.8979 45.1313L41.5532 38.8252H43.9556L41.3262 46.75H39.8833L39.8979 45.1313ZM38.8286 38.8252L40.4766 45.1387L40.4912 46.75H39.0483L36.4189 38.8252H38.8286Z" fill="#274C5B"/>
</svg>
