<svg width="15" height="16" viewBox="0 0 15 16" fill="none" xmlns="http://www.w3.org/2000/svg">
<path d="M9.98705 1.34084C9.35555 0.637386 8.47353 0.25 7.5 0.25C6.52128 0.25 5.63634 0.635042 5.00776 1.33415C4.37237 2.04095 4.06279 3.00155 4.13548 4.03882C4.27956 6.08523 5.78886 7.74996 7.5 7.74996C9.21114 7.74996 10.7178 6.08557 10.8642 4.03949C10.9379 3.01159 10.6263 2.053 9.98705 1.34084V1.34084ZM13.2114 15.2499H1.78862C1.63911 15.2519 1.49104 15.2195 1.35519 15.155C1.21934 15.0906 1.09913 14.9957 1.0033 14.8773C0.792372 14.6171 0.70735 14.2619 0.770305 13.9026C1.04419 12.335 1.89895 11.0181 3.24242 10.0937C4.43597 9.27305 5.94787 8.82138 7.5 8.82138C9.05213 8.82138 10.564 9.27339 11.7576 10.0937C13.101 11.0178 13.9558 12.3346 14.2297 13.9023C14.2926 14.2615 14.2076 14.6168 13.9967 14.8769C13.9009 14.9954 13.7807 15.0904 13.6449 15.1549C13.509 15.2194 13.3609 15.2519 13.2114 15.2499V15.2499Z" fill="#EFD372"/>
</svg>
