<svg width="46" height="46" viewBox="0 0 46 46" fill="none" xmlns="http://www.w3.org/2000/svg">
<circle cx="23" cy="22.5371" r="22.5" fill="#EFF6F1"/>
<path d="M22.8475 15.0371C18.79 15.0371 15.5 18.3256 15.5 22.3813C15.5 25.3878 17.3106 27.9714 19.8986 29.1091C19.879 28.5976 19.8954 27.9813 20.0266 27.4239C20.1676 26.8272 20.9712 23.4206 20.9712 23.4206C20.9712 23.4206 20.7351 22.9518 20.7351 22.26C20.7351 21.1715 21.3649 20.3584 22.1521 20.3584C22.8212 20.3584 23.1427 20.86 23.1427 21.46C23.1427 22.1321 22.713 23.1354 22.4932 24.0665C22.3095 24.8469 22.8836 25.4796 23.6544 25.4796C25.0452 25.4796 25.9833 23.6928 25.9833 21.5748C25.9833 19.9649 24.8976 18.7617 22.9262 18.7617C20.699 18.7617 19.3082 20.4239 19.3082 22.2797C19.3082 22.919 19.4985 23.3715 19.7937 23.719C19.9282 23.8797 19.9478 23.9452 19.8986 24.1288C19.8626 24.2633 19.7838 24.5878 19.7478 24.719C19.6986 24.9059 19.5477 24.9714 19.3804 24.9026C18.3537 24.4829 17.8748 23.3616 17.8748 22.0961C17.8748 20.0108 19.6362 17.5092 23.1263 17.5092C25.9308 17.5092 27.7775 19.5387 27.7775 21.7157C27.7775 24.5977 26.1735 26.7485 23.8118 26.7485C23.018 26.7485 22.2735 26.319 22.0176 25.8337C22.0176 25.8337 21.5912 27.5255 21.4993 27.8534C21.3452 28.4206 21.0401 28.9845 20.7613 29.4271C21.4376 29.6266 22.1391 29.7282 22.8442 29.7288C26.9017 29.7288 30.1917 26.4403 30.1917 22.3846C30.1917 18.3289 26.905 15.0371 22.8475 15.0371Z" fill="#274C5B"/>
</svg>
