<svg width="43" height="43" viewBox="0 0 43 43" fill="none" xmlns="http://www.w3.org/2000/svg">
<circle cx="21.0933" cy="21.5" r="21" fill="#7EB693"/>
<path d="M29.8519 27.4191L26.2814 23.8486C27.141 22.7043 27.6051 21.3114 27.6035 19.8801C27.6035 16.2243 24.6292 13.25 20.9734 13.25C17.3176 13.25 14.3433 16.2243 14.3433 19.8801C14.3433 23.5359 17.3176 26.5102 20.9734 26.5102C22.4046 26.5118 23.7975 26.0478 24.9419 25.1882L28.5123 28.7586C28.6931 28.9202 28.9288 29.0064 29.1711 28.9996C29.4134 28.9928 29.644 28.8936 29.8154 28.7221C29.9868 28.5507 30.0861 28.3202 30.0929 28.0779C30.0997 27.8355 30.0134 27.5998 29.8519 27.4191ZM16.2376 19.8801C16.2376 18.9435 16.5153 18.0278 17.0357 17.2491C17.5561 16.4703 18.2957 15.8633 19.1611 15.5048C20.0264 15.1464 20.9786 15.0526 21.8973 15.2353C22.8159 15.418 23.6598 15.8691 24.3221 16.5314C24.9844 17.1937 25.4355 18.0376 25.6182 18.9562C25.8009 19.8749 25.7071 20.8271 25.3487 21.6924C24.9902 22.5578 24.3832 23.2974 23.6045 23.8178C22.8257 24.3382 21.91 24.6159 20.9734 24.6159C19.7178 24.6144 18.5141 24.115 17.6263 23.2272C16.7385 22.3394 16.2391 21.1357 16.2376 19.8801Z" fill="#FAFAFA"/>
</svg>
