<svg width="64" height="15" viewBox="0 0 64 15" fill="none" xmlns="http://www.w3.org/2000/svg">
<path d="M6.82642 2.69526C7.05712 2.01748 8.01571 2.01748 8.24641 2.69526L8.98405 4.86235C9.08751 5.1663 9.37297 5.37068 9.69405 5.37068H12.0042C12.7392 5.37068 13.0356 6.31812 12.4316 6.73697L10.6236 7.99092C10.3484 8.18176 10.2331 8.53188 10.341 8.84888L11.0456 10.9189C11.2787 11.6038 10.5027 12.1892 9.90819 11.7769L7.96383 10.4284C7.70677 10.2501 7.36605 10.2501 7.10899 10.4284L5.16464 11.7769C4.57014 12.1892 3.79409 11.6038 4.02722 10.9189L4.73183 8.84888C4.83973 8.53188 4.72442 8.18176 4.44925 7.99092L2.6412 6.73697C2.03727 6.31812 2.33366 5.37068 3.06862 5.37068H5.37878C5.69985 5.37068 5.98532 5.1663 6.08878 4.86235L6.82642 2.69526Z" fill="#FFA858"/>
<path d="M18.9633 2.80473C19.1878 2.11374 20.1653 2.11374 20.3899 2.80473L21.0552 4.85244C21.1556 5.16146 21.4435 5.37068 21.7685 5.37068H23.9215C24.6481 5.37068 24.9502 6.30038 24.3624 6.72744L22.6205 7.99304C22.3576 8.18402 22.2476 8.52254 22.348 8.83155L23.0134 10.8793C23.2379 11.5703 22.447 12.1449 21.8592 11.7178L20.1174 10.4523C19.8545 10.2613 19.4986 10.2613 19.2357 10.4523L17.4939 11.7178C16.9061 12.1449 16.1152 11.5703 16.3397 10.8793L17.0051 8.83155C17.1055 8.52254 16.9955 8.18402 16.7326 7.99304L14.9907 6.72744C14.403 6.30038 14.705 5.37068 15.4316 5.37068H17.5846C17.9096 5.37068 18.1975 5.16146 18.2979 4.85244L18.9633 2.80473Z" fill="#FFA858"/>
<path d="M31.1067 2.69526C31.3374 2.01748 32.296 2.01748 32.5267 2.69526L33.2643 4.86235C33.3678 5.1663 33.6532 5.37068 33.9743 5.37068H36.2845C37.0194 5.37068 37.3158 6.31812 36.7119 6.73697L34.9038 7.99092C34.6287 8.18176 34.5134 8.53188 34.6213 8.84888L35.3259 10.9189C35.559 11.6038 34.783 12.1892 34.1885 11.7769L32.2441 10.4284C31.987 10.2501 31.6463 10.2501 31.3893 10.4284L29.4449 11.7769C28.8504 12.1892 28.0744 11.6038 28.3075 10.9189L29.0121 8.84888C29.12 8.53188 29.0047 8.18176 28.7295 7.99092L26.9215 6.73697C26.3175 6.31812 26.6139 5.37068 27.3489 5.37068H29.6591C29.9801 5.37068 30.2656 5.1663 30.369 4.86235L31.1067 2.69526Z" fill="#FFA858"/>
<path d="M43.2435 2.80473C43.468 2.11374 44.4456 2.11374 44.6701 2.80473L45.3354 4.85244C45.4359 5.16146 45.7238 5.37068 46.0487 5.37068H48.2018C48.9283 5.37068 49.2304 6.30038 48.6427 6.72744L46.9007 7.99304C46.6379 8.18402 46.5279 8.52254 46.6283 8.83155L47.2936 10.8793C47.5182 11.5703 46.7273 12.1449 46.1395 11.7178L44.3977 10.4523C44.1348 10.2613 43.7789 10.2613 43.516 10.4523L41.7742 11.7178C41.1864 12.1449 40.3955 11.5703 40.62 10.8793L41.2854 8.83155C41.3858 8.52254 41.2758 8.18402 41.0129 7.99304L39.271 6.72744C38.6832 6.30038 38.9853 5.37068 39.7119 5.37068H41.8649C42.1898 5.37068 42.4778 5.16146 42.5782 4.85244L43.2435 2.80473Z" fill="#FFA858"/>
<path d="M55.3875 2.69526C55.6182 2.01748 56.5767 2.01748 56.8074 2.69526L57.5451 4.86235C57.6485 5.1663 57.934 5.37068 58.2551 5.37068H60.5652C61.3002 5.37068 61.5966 6.31812 60.9927 6.73697L59.1846 7.99092C58.9094 8.18176 58.7941 8.53188 58.902 8.84888L59.6066 10.9189C59.8398 11.6038 59.0637 12.1892 58.4692 11.7769L56.5249 10.4284C56.2678 10.2501 55.9271 10.2501 55.67 10.4284L53.7257 11.7769C53.1312 12.1892 52.3551 11.6038 52.5883 10.9189L53.2929 8.84888C53.4008 8.53188 53.2855 8.18176 53.0103 7.99092L51.2022 6.73697C50.5983 6.31812 50.8947 5.37068 51.6297 5.37068H53.9398C54.2609 5.37068 54.5464 5.1663 54.6498 4.86235L55.3875 2.69526Z" fill="#FFA858"/>
</svg>
