<svg width="96" height="26" viewBox="0 0 96 26" fill="none" xmlns="http://www.w3.org/2000/svg">
<g filter="url(#filter0_d_2_14666)">
<path d="M11.9445 2.33637C12.1752 1.6586 13.1338 1.6586 13.3645 2.33637L14.8407 6.67319C14.9442 6.97715 15.2296 7.18152 15.5507 7.18152H20.2508C20.9858 7.18152 21.2822 8.12897 20.6782 8.54781L16.9367 11.1427C16.6615 11.3336 16.5462 11.6837 16.6541 12.0007L18.0972 16.2405C18.3304 16.9254 17.5543 17.5108 16.9598 17.0984L13.0819 14.409C12.8249 14.2307 12.4842 14.2307 12.2271 14.409L8.34923 17.0984C7.75473 17.5108 6.97869 16.9254 7.21181 16.2405L8.65496 12.0007C8.76286 11.6837 8.64755 11.3336 8.37238 11.1427L4.63081 8.54781C4.02688 8.12897 4.32328 7.18152 5.05823 7.18152H9.75835C10.0794 7.18152 10.3649 6.97715 10.4683 6.67319L11.9445 2.33637Z" fill="#FFA858"/>
<path d="M29.614 2.44585C29.8385 1.75485 30.8161 1.75486 31.0406 2.44585L32.4109 6.66328C32.5113 6.9723 32.7992 7.18152 33.1242 7.18152H37.5585C38.2851 7.18152 38.5872 8.11123 37.9994 8.53828L34.4119 11.1449C34.149 11.3358 34.039 11.6744 34.1394 11.9834L35.5097 16.2009C35.7342 16.8918 34.9434 17.4664 34.3556 17.0394L30.7681 14.4329C30.5053 14.2419 30.1493 14.2419 29.8864 14.4329L26.299 17.0394C25.7112 17.4664 24.9203 16.8918 25.1448 16.2009L26.5151 11.9834C26.6155 11.6744 26.5056 11.3358 26.2427 11.1449L22.6552 8.53828C22.0674 8.11123 22.3695 7.18152 23.096 7.18152H27.5304C27.8553 7.18152 28.1433 6.9723 28.2437 6.66328L29.614 2.44585Z" fill="#FFA858"/>
<path d="M47.2902 2.33637C47.5209 1.6586 48.4795 1.6586 48.7102 2.33637L50.1864 6.67319C50.2899 6.97715 50.5753 7.18152 50.8964 7.18152H55.5965C56.3315 7.18152 56.6279 8.12897 56.0239 8.54781L52.2824 11.1427C52.0072 11.3336 51.8919 11.6837 51.9998 12.0007L53.4429 16.2405C53.6761 16.9254 52.9 17.5108 52.3055 17.0984L48.4276 14.409C48.1706 14.2307 47.8299 14.2307 47.5728 14.409L43.6949 17.0984C43.1004 17.5108 42.3244 16.9254 42.5575 16.2405L44.0007 12.0007C44.1086 11.6837 43.9932 11.3336 43.7181 11.1427L39.9765 8.54781C39.3726 8.12897 39.669 7.18152 40.4039 7.18152H45.1041C45.4251 7.18152 45.7106 6.97715 45.814 6.67319L47.2902 2.33637Z" fill="#FFA858"/>
<path d="M64.9592 2.44585C65.1837 1.75485 66.1613 1.75486 66.3858 2.44585L67.7561 6.66328C67.8565 6.9723 68.1444 7.18152 68.4694 7.18152H72.9038C73.6303 7.18152 73.9324 8.11123 73.3446 8.53828L69.7571 11.1449C69.4942 11.3358 69.3842 11.6744 69.4846 11.9834L70.8549 16.2009C71.0794 16.8918 70.2886 17.4664 69.7008 17.0394L66.1133 14.4329C65.8505 14.2419 65.4945 14.2419 65.2316 14.4329L61.6442 17.0394C61.0564 17.4664 60.2655 16.8918 60.49 16.2009L61.8604 11.9834C61.9608 11.6744 61.8508 11.3358 61.5879 11.1449L58.0004 8.53828C57.4126 8.11123 57.7147 7.18152 58.4412 7.18152H62.8756C63.2005 7.18152 63.4885 6.9723 63.5889 6.66328L64.9592 2.44585Z" fill="#FFA858"/>
<path d="M82.635 2.33637C82.8657 1.6586 83.8242 1.6586 84.0549 2.33637L85.5311 6.67319C85.6346 6.97715 85.92 7.18152 86.2411 7.18152H90.9412C91.6762 7.18152 91.9726 8.12897 91.3687 8.54781L87.6271 11.1427C87.3519 11.3336 87.2366 11.6837 87.3445 12.0007L88.7877 16.2405C89.0208 16.9254 88.2447 17.5108 87.6502 17.0984L83.7724 14.409C83.5153 14.2307 83.1746 14.2307 82.9175 14.409L79.0397 17.0984C78.4452 17.5108 77.6691 16.9254 77.9022 16.2405L79.3454 12.0007C79.4533 11.6837 79.338 11.3336 79.0628 11.1427L75.3212 8.54781C74.7173 8.12897 75.0137 7.18152 75.7487 7.18152H80.4488C80.7699 7.18152 81.0553 6.97715 81.1588 6.67319L82.635 2.33637Z" fill="#FFA858"/>
</g>
<defs>
<filter id="filter0_d_2_14666" x="0.306641" y="1.82812" width="95.3862" height="23.4075" filterUnits="userSpaceOnUse" color-interpolation-filters="sRGB">
<feFlood flood-opacity="0" result="BackgroundImageFix"/>
<feColorMatrix in="SourceAlpha" type="matrix" values="0 0 0 0 0 0 0 0 0 0 0 0 0 0 0 0 0 0 127 0" result="hardAlpha"/>
<feOffset dy="4"/>
<feGaussianBlur stdDeviation="2"/>
<feComposite in2="hardAlpha" operator="out"/>
<feColorMatrix type="matrix" values="0 0 0 0 0 0 0 0 0 0 0 0 0 0 0 0 0 0 0.25 0"/>
<feBlend mode="normal" in2="BackgroundImageFix" result="effect1_dropShadow_2_14666"/>
<feBlend mode="normal" in="SourceGraphic" in2="effect1_dropShadow_2_14666" result="shape"/>
</filter>
</defs>
</svg>
