<svg width="64" height="15" viewBox="0 0 64 15" fill="none" xmlns="http://www.w3.org/2000/svg">
<path d="M7.14429 2.94526C7.37499 2.26748 8.33358 2.26748 8.56428 2.94526L9.30192 5.11235C9.40538 5.4163 9.69084 5.62068 10.0119 5.62068H12.3221C13.057 5.62068 13.3534 6.56812 12.7495 6.98697L10.9414 8.24092C10.6663 8.43176 10.551 8.78188 10.6589 9.09888L11.3635 11.1689C11.5966 11.8538 10.8206 12.4392 10.2261 12.0269L8.2817 10.6784C8.02464 10.5001 7.68392 10.5001 7.42686 10.6784L5.48251 12.0269C4.88801 12.4392 4.11196 11.8538 4.34509 11.1689L5.0497 9.09888C5.1576 8.78188 5.04229 8.43176 4.76712 8.24092L2.95907 6.98697C2.35514 6.56812 2.65153 5.62068 3.38649 5.62068H5.69665C6.01773 5.62068 6.30319 5.4163 6.40665 5.11235L7.14429 2.94526Z" fill="#FFA858"/>
<path d="M19.2811 3.05473C19.5056 2.36374 20.4832 2.36374 20.7077 3.05473L21.373 5.10244C21.4734 5.41146 21.7614 5.62068 22.0863 5.62068H24.2394C24.9659 5.62068 25.268 6.55038 24.6803 6.97744L22.9383 8.24304C22.6755 8.43402 22.5655 8.77254 22.6659 9.08155L23.3312 11.1293C23.5557 11.8203 22.7649 12.3949 22.1771 11.9678L20.4353 10.7023C20.1724 10.5113 19.8165 10.5113 19.5536 10.7023L17.8118 11.9678C17.224 12.3949 16.4331 11.8203 16.6576 11.1293L17.323 9.08155C17.4234 8.77254 17.3134 8.43402 17.0505 8.24304L15.3086 6.97744C14.7208 6.55038 15.0229 5.62068 15.7495 5.62068H17.9025C18.2274 5.62068 18.5154 5.41146 18.6158 5.10244L19.2811 3.05473Z" fill="#FFA858"/>
<path d="M31.4246 2.94526C31.6553 2.26748 32.6139 2.26748 32.8446 2.94526L33.5822 5.11235C33.6857 5.4163 33.9711 5.62068 34.2922 5.62068H36.6024C37.3373 5.62068 37.6337 6.56812 37.0298 6.98697L35.2217 8.24092C34.9466 8.43176 34.8312 8.78188 34.9391 9.09888L35.6438 11.1689C35.8769 11.8538 35.1008 12.4392 34.5063 12.0269L32.562 10.6784C32.3049 10.5001 31.9642 10.5001 31.7071 10.6784L29.7628 12.0269C29.1683 12.4392 28.3922 11.8538 28.6254 11.1689L29.33 9.09888C29.4379 8.78188 29.3226 8.43176 29.0474 8.24092L27.2393 6.98697C26.6354 6.56812 26.9318 5.62068 27.6668 5.62068H29.9769C30.298 5.62068 30.5835 5.4163 30.6869 5.11235L31.4246 2.94526Z" fill="#FFA858"/>
<path d="M43.5614 3.05473C43.7859 2.36374 44.7635 2.36374 44.988 3.05473L45.6533 5.10244C45.7537 5.41146 46.0417 5.62068 46.3666 5.62068H48.5197C49.2462 5.62068 49.5483 6.55038 48.9605 6.97744L47.2186 8.24304C46.9558 8.43402 46.8458 8.77254 46.9462 9.08155L47.6115 11.1293C47.836 11.8203 47.0452 12.3949 46.4574 11.9678L44.7155 10.7023C44.4527 10.5113 44.0967 10.5113 43.8339 10.7023L42.092 11.9678C41.5043 12.3949 40.7134 11.8203 40.9379 11.1293L41.6032 9.08155C41.7036 8.77254 41.5936 8.43402 41.3308 8.24304L39.5889 6.97744C39.0011 6.55038 39.3032 5.62068 40.0297 5.62068H42.1828C42.5077 5.62068 42.7957 5.41146 42.8961 5.10244L43.5614 3.05473Z" fill="#FFA858"/>
<path d="M55.7048 2.94526C55.9355 2.26748 56.8941 2.26748 57.1248 2.94526L57.8625 5.11235C57.9659 5.4163 58.2514 5.62068 58.5725 5.62068H60.8826C61.6176 5.62068 61.914 6.56812 61.31 6.98697L59.502 8.24092C59.2268 8.43176 59.1115 8.78188 59.2194 9.09888L59.924 11.1689C60.1571 11.8538 59.3811 12.4392 58.7866 12.0269L56.8422 10.6784C56.5852 10.5001 56.2445 10.5001 55.9874 10.6784L54.0431 12.0269C53.4486 12.4392 52.6725 11.8538 52.9056 11.1689L53.6102 9.09888C53.7182 8.78188 53.6028 8.43176 53.3277 8.24092L51.5196 6.98697C50.9157 6.56812 51.2121 5.62068 51.947 5.62068H54.2572C54.5783 5.62068 54.8637 5.4163 54.9672 5.11235L55.7048 2.94526Z" fill="#FFA858"/>
</svg>
