<svg width="159" height="159" viewBox="0 0 159 159" fill="none" xmlns="http://www.w3.org/2000/svg">
<circle cx="79.375" cy="79.4375" r="70.875" fill="#F1F1F1"/>
<path d="M158.5 79.4375C158.5 123.137 123.075 158.562 79.375 158.562C35.6755 158.562 0.25 123.137 0.25 79.4375C0.25 35.738 35.6755 0.3125 79.375 0.3125C123.075 0.3125 158.5 35.738 158.5 79.4375ZM3.41119 79.4375C3.41119 121.391 37.4213 155.401 79.375 155.401C121.329 155.401 155.339 121.391 155.339 79.4375C155.339 37.4838 121.329 3.47369 79.375 3.47369C37.4213 3.47369 3.41119 37.4838 3.41119 79.4375Z" fill="#7EB693"/>
<path d="M34.3999 98.4807C34.3999 100.05 34.0066 101.269 33.22 102.139C32.4377 103.009 31.3281 103.444 29.8911 103.444C28.4365 103.444 27.3181 103.014 26.5359 102.152C25.7581 101.287 25.3691 100.058 25.3691 98.4675C25.3691 96.8767 25.7603 95.655 26.5425 94.8025C27.3291 93.95 28.4497 93.5237 29.9043 93.5237C31.3369 93.5237 32.4443 93.9565 33.2266 94.8223C34.0088 95.688 34.3999 96.9075 34.3999 98.4807ZM27.0435 98.4807C27.0435 99.6672 27.283 100.568 27.762 101.183C28.241 101.794 28.9507 102.1 29.8911 102.1C30.8271 102.1 31.5325 101.796 32.0071 101.19C32.4861 100.583 32.7256 99.6804 32.7256 98.4807C32.7256 97.2986 32.4883 96.4021 32.0137 95.7913C31.5435 95.1804 30.8403 94.875 29.9043 94.875C28.9595 94.875 28.2454 95.1804 27.762 95.7913C27.283 96.4021 27.0435 97.2986 27.0435 98.4807ZM40.0029 95.8901C40.3149 95.8901 40.572 95.9121 40.7742 95.9561L40.6226 97.3997C40.4028 97.3469 40.1743 97.3206 39.937 97.3206C39.3174 97.3206 38.8142 97.5227 38.4275 97.927C38.0452 98.3313 37.854 98.8564 37.854 99.5024V103.312H36.3049V96.022H37.5178L37.7222 97.3074H37.8013C38.043 96.8723 38.3572 96.5273 38.7439 96.2725C39.135 96.0176 39.5547 95.8901 40.0029 95.8901ZM48.2888 96.022V96.8723L47.043 97.103C47.1572 97.2568 47.2517 97.4458 47.3264 97.6699C47.4011 97.894 47.4385 98.1313 47.4385 98.3818C47.4385 99.1333 47.1792 99.7244 46.6606 100.155C46.1421 100.586 45.428 100.801 44.5183 100.801C44.2854 100.801 44.0745 100.783 43.8855 100.748C43.5515 100.955 43.3845 101.197 43.3845 101.473C43.3845 101.64 43.4614 101.766 43.6152 101.849C43.7734 101.933 44.0613 101.974 44.4788 101.974H45.751C46.5552 101.974 47.166 102.146 47.5835 102.489C48.001 102.831 48.2097 103.326 48.2097 103.972C48.2097 104.798 47.8691 105.435 47.188 105.883C46.5068 106.332 45.5225 106.556 44.2349 106.556C43.2417 106.556 42.4836 106.38 41.9607 106.028C41.4377 105.677 41.1763 105.176 41.1763 104.525C41.1763 104.077 41.3169 103.699 41.5981 103.392C41.8838 103.088 42.2815 102.877 42.7913 102.759C42.5847 102.671 42.4133 102.53 42.2771 102.337C42.1453 102.139 42.0793 101.933 42.0793 101.717C42.0793 101.445 42.1562 101.214 42.3101 101.025C42.4639 100.836 42.6924 100.649 42.9956 100.465C42.6177 100.302 42.3101 100.039 42.0728 99.6738C41.8398 99.3047 41.7234 98.874 41.7234 98.3818C41.7234 97.5908 41.9717 96.9778 42.4683 96.5427C42.9692 96.1077 43.6812 95.8901 44.604 95.8901C44.8105 95.8901 45.0259 95.9055 45.25 95.9363C45.4785 95.9626 45.6499 95.9912 45.7642 96.022H48.2888ZM42.5605 104.446C42.5605 104.78 42.71 105.037 43.0088 105.218C43.312 105.398 43.7361 105.488 44.281 105.488C45.1248 105.488 45.7532 105.367 46.1663 105.125C46.5793 104.884 46.7859 104.563 46.7859 104.163C46.7859 103.846 46.6716 103.62 46.4431 103.484C46.219 103.352 45.7993 103.286 45.1841 103.286H44.0107C43.5669 103.286 43.2131 103.389 42.9495 103.596C42.6902 103.807 42.5605 104.09 42.5605 104.446ZM43.2263 98.3818C43.2263 98.8389 43.3428 99.1904 43.5757 99.4365C43.813 99.6826 44.1514 99.8057 44.5908 99.8057C45.4873 99.8057 45.9355 99.3267 45.9355 98.3687C45.9355 97.894 45.8235 97.5293 45.5994 97.2744C45.3796 97.0151 45.0435 96.8855 44.5908 96.8855C44.1426 96.8855 43.802 97.0129 43.5691 97.2678C43.3406 97.5227 43.2263 97.894 43.2263 98.3818ZM54.2083 103.312L53.8984 102.297H53.8457C53.4941 102.741 53.1404 103.044 52.7844 103.207C52.4285 103.365 51.9714 103.444 51.4133 103.444C50.697 103.444 50.1367 103.251 49.7324 102.864C49.3325 102.478 49.1326 101.93 49.1326 101.223C49.1326 100.471 49.4116 99.9045 49.9697 99.5222C50.5278 99.1399 51.3782 98.9312 52.5208 98.896L53.7798 98.8564V98.4675C53.7798 98.0017 53.6699 97.6545 53.4502 97.426C53.2349 97.1931 52.8987 97.0767 52.4417 97.0767C52.0681 97.0767 51.71 97.1316 51.3672 97.2415C51.0244 97.3513 50.6948 97.481 50.3784 97.6304L49.8774 96.5229C50.2729 96.3164 50.7058 96.1604 51.176 96.0549C51.6462 95.9451 52.0901 95.8901 52.5076 95.8901C53.4348 95.8901 54.1335 96.0923 54.6038 96.4966C55.0784 96.9009 55.3157 97.5359 55.3157 98.4016V103.312H54.2083ZM51.9011 102.258C52.4636 102.258 52.9141 102.102 53.2524 101.79C53.5952 101.473 53.7666 101.032 53.7666 100.465V99.832L52.8306 99.8716C52.1011 99.8979 51.5693 100.021 51.2354 100.241C50.9058 100.456 50.741 100.788 50.741 101.236C50.741 101.561 50.8376 101.814 51.031 101.994C51.2244 102.17 51.5144 102.258 51.9011 102.258ZM63.8916 103.312H62.3359V98.8301C62.3359 98.2676 62.2217 97.8479 61.9932 97.571C61.769 97.2942 61.4109 97.1558 60.9187 97.1558C60.2639 97.1558 59.7849 97.3491 59.4817 97.7358C59.1785 98.1226 59.0269 98.7708 59.0269 99.6804V103.312H57.4778V96.022H58.6907L58.9082 96.9778H58.9873C59.207 96.6306 59.519 96.3625 59.9233 96.1736C60.3276 95.9846 60.7759 95.8901 61.2681 95.8901C63.0171 95.8901 63.8916 96.78 63.8916 98.5598V103.312ZM67.5962 103.312H66.0471V96.022H67.5962V103.312ZM65.9548 94.0906C65.9548 93.8137 66.0295 93.6006 66.179 93.4512C66.3328 93.3018 66.5503 93.2271 66.8315 93.2271C67.104 93.2271 67.3149 93.3018 67.4644 93.4512C67.6182 93.6006 67.6951 93.8137 67.6951 94.0906C67.6951 94.3542 67.6182 94.563 67.4644 94.7168C67.3149 94.8662 67.104 94.9409 66.8315 94.9409C66.5503 94.9409 66.3328 94.8662 66.179 94.7168C66.0295 94.563 65.9548 94.3542 65.9548 94.0906ZM72.7576 103.444C71.6545 103.444 70.8152 103.124 70.2395 102.482C69.6682 101.836 69.3826 100.911 69.3826 99.7068C69.3826 98.4807 69.6814 97.5381 70.2791 96.8789C70.8811 96.2197 71.749 95.8901 72.8828 95.8901C73.6519 95.8901 74.344 96.033 74.9592 96.3186L74.4912 97.5645C73.8364 97.3096 73.2959 97.1821 72.8696 97.1821C71.6084 97.1821 70.9778 98.0193 70.9778 99.6936C70.9778 100.511 71.1338 101.126 71.4458 101.539C71.7622 101.948 72.2236 102.152 72.8301 102.152C73.52 102.152 74.1726 101.981 74.7878 101.638V102.99C74.511 103.152 74.2144 103.269 73.8979 103.339C73.5859 103.409 73.2058 103.444 72.7576 103.444ZM88.7295 98.4807C88.7295 100.05 88.3362 101.269 87.5496 102.139C86.7673 103.009 85.6577 103.444 84.2207 103.444C82.7661 103.444 81.6477 103.014 80.8655 102.152C80.0876 101.287 79.6987 100.058 79.6987 98.4675C79.6987 96.8767 80.0898 95.655 80.8721 94.8025C81.6587 93.95 82.7793 93.5237 84.2339 93.5237C85.6665 93.5237 86.7739 93.9565 87.5562 94.8223C88.3384 95.688 88.7295 96.9075 88.7295 98.4807ZM81.373 98.4807C81.373 99.6672 81.6125 100.568 82.0916 101.183C82.5706 101.794 83.2803 102.1 84.2207 102.1C85.1567 102.1 85.8621 101.796 86.3367 101.19C86.8157 100.583 87.0552 99.6804 87.0552 98.4807C87.0552 97.2986 86.8179 96.4021 86.3433 95.7913C85.873 95.1804 85.1699 94.875 84.2339 94.875C83.2891 94.875 82.575 95.1804 82.0916 95.7913C81.6125 96.4021 81.373 97.2986 81.373 98.4807ZM94.3325 95.8901C94.6445 95.8901 94.9016 95.9121 95.1038 95.9561L94.9521 97.3997C94.7324 97.3469 94.5039 97.3206 94.2666 97.3206C93.647 97.3206 93.1438 97.5227 92.7571 97.927C92.3748 98.3313 92.1836 98.8564 92.1836 99.5024V103.312H90.6345V96.022H91.8474L92.0518 97.3074H92.1309C92.3726 96.8723 92.6868 96.5273 93.0735 96.2725C93.4646 96.0176 93.8843 95.8901 94.3325 95.8901ZM99.4016 103.444C98.2986 103.444 97.4592 103.124 96.8835 102.482C96.3123 101.836 96.0266 100.911 96.0266 99.7068C96.0266 98.4807 96.3254 97.5381 96.9231 96.8789C97.5251 96.2197 98.3931 95.8901 99.5269 95.8901C100.296 95.8901 100.988 96.033 101.603 96.3186L101.135 97.5645C100.48 97.3096 99.9399 97.1821 99.5137 97.1821C98.2524 97.1821 97.6218 98.0193 97.6218 99.6936C97.6218 100.511 97.7778 101.126 98.0898 101.539C98.4062 101.948 98.8677 102.152 99.4741 102.152C100.164 102.152 100.817 101.981 101.432 101.638V102.99C101.155 103.152 100.858 103.269 100.542 103.339C100.23 103.409 99.8499 103.444 99.4016 103.444ZM109.56 103.312H108.004V98.8301C108.004 98.2676 107.89 97.8479 107.661 97.571C107.437 97.2942 107.079 97.1558 106.587 97.1558C105.936 97.1558 105.457 97.3513 105.15 97.7424C104.846 98.1292 104.695 98.7795 104.695 99.6936V103.312H103.146V93.0557H104.695V95.6594C104.695 96.0769 104.668 96.5229 104.616 96.9976H104.715C104.926 96.646 105.218 96.3735 105.591 96.1802C105.969 95.9868 106.409 95.8901 106.91 95.8901C108.676 95.8901 109.56 96.78 109.56 98.5598V103.312ZM116.277 103.312L115.967 102.297H115.914C115.562 102.741 115.209 103.044 114.853 103.207C114.497 103.365 114.04 103.444 113.482 103.444C112.765 103.444 112.205 103.251 111.801 102.864C111.401 102.478 111.201 101.93 111.201 101.223C111.201 100.471 111.48 99.9045 112.038 99.5222C112.596 99.1399 113.447 98.9312 114.589 98.896L115.848 98.8564V98.4675C115.848 98.0017 115.738 97.6545 115.519 97.426C115.303 97.1931 114.967 97.0767 114.51 97.0767C114.136 97.0767 113.778 97.1316 113.436 97.2415C113.093 97.3513 112.763 97.481 112.447 97.6304L111.946 96.5229C112.341 96.3164 112.774 96.1604 113.244 96.0549C113.715 95.9451 114.158 95.8901 114.576 95.8901C115.503 95.8901 116.202 96.0923 116.672 96.4966C117.147 96.9009 117.384 97.5359 117.384 98.4016V103.312H116.277ZM113.969 102.258C114.532 102.258 114.982 102.102 115.321 101.79C115.664 101.473 115.835 101.032 115.835 100.465V99.832L114.899 99.8716C114.169 99.8979 113.638 100.021 113.304 100.241C112.974 100.456 112.809 100.788 112.809 101.236C112.809 101.561 112.906 101.814 113.099 101.994C113.293 102.17 113.583 102.258 113.969 102.258ZM122.005 103.444C121.095 103.444 120.385 103.115 119.876 102.456C119.366 101.796 119.111 100.871 119.111 99.6804C119.111 98.4851 119.368 97.5557 119.882 96.8921C120.401 96.2241 121.117 95.8901 122.031 95.8901C122.989 95.8901 123.719 96.2439 124.22 96.9514H124.299C124.224 96.4285 124.187 96.0154 124.187 95.7122V93.0557H125.742V103.312H124.53L124.259 102.357H124.187C123.69 103.082 122.963 103.444 122.005 103.444ZM122.42 102.192C123.057 102.192 123.521 102.014 123.811 101.658C124.101 101.298 124.25 100.715 124.259 99.9111V99.6936C124.259 98.7751 124.11 98.1226 123.811 97.7358C123.512 97.3491 123.044 97.1558 122.407 97.1558C121.862 97.1558 121.442 97.3777 121.148 97.8215C120.854 98.261 120.706 98.8894 120.706 99.7068C120.706 100.515 120.849 101.133 121.135 101.559C121.42 101.981 121.849 102.192 122.42 102.192ZM132.855 101.236C132.855 101.948 132.596 102.495 132.077 102.877C131.559 103.255 130.816 103.444 129.849 103.444C128.878 103.444 128.098 103.297 127.509 103.003V101.665C128.366 102.06 129.164 102.258 129.902 102.258C130.855 102.258 131.332 101.97 131.332 101.394C131.332 101.21 131.28 101.056 131.174 100.933C131.069 100.81 130.895 100.682 130.653 100.551C130.412 100.419 130.075 100.269 129.645 100.102C128.805 99.7771 128.236 99.4519 127.938 99.1267C127.643 98.8015 127.496 98.3796 127.496 97.8611C127.496 97.2371 127.746 96.7537 128.247 96.4109C128.753 96.0637 129.438 95.8901 130.304 95.8901C131.161 95.8901 131.972 96.0637 132.736 96.4109L132.235 97.5776C131.449 97.2524 130.787 97.0898 130.251 97.0898C129.434 97.0898 129.025 97.3228 129.025 97.7886C129.025 98.0171 129.131 98.2104 129.342 98.3687C129.557 98.5269 130.023 98.7444 130.739 99.0212C131.341 99.2542 131.778 99.4673 132.051 99.6606C132.323 99.854 132.525 100.078 132.657 100.333C132.789 100.583 132.855 100.885 132.855 101.236Z" fill="#274C5B"/>
<path d="M43.9106 67.5471H46.822C47.6521 67.5471 48.3357 67.4006 48.8728 67.1077C49.4221 66.8147 49.825 66.3997 50.0813 65.8625C50.3499 65.3254 50.4841 64.6968 50.4841 63.9766C50.4841 63.354 50.3621 62.7986 50.1179 62.3103C49.8738 61.822 49.5015 61.4375 49.001 61.1567C48.5127 60.8638 47.8779 60.7173 47.0967 60.7173C46.5352 60.7173 45.998 60.8333 45.4854 61.0652C44.9849 61.2849 44.5759 61.6084 44.2585 62.0356C43.9412 62.4507 43.7825 62.9512 43.7825 63.5371H38.0513C38.0513 62.0479 38.4541 60.76 39.2598 59.6736C40.0776 58.5872 41.158 57.751 42.5007 57.165C43.8557 56.5669 45.3328 56.2678 46.9319 56.2678C48.7751 56.2678 50.3926 56.5608 51.7842 57.1467C53.188 57.7205 54.2744 58.575 55.0435 59.7102C55.8247 60.8333 56.2153 62.2249 56.2153 63.885C56.2153 64.7517 56.0078 65.5879 55.5928 66.3936C55.1899 67.187 54.6101 67.895 53.8533 68.5176C53.1086 69.1279 52.2175 69.6162 51.1799 69.9824C50.1545 70.3364 49.0132 70.5134 47.7559 70.5134H43.9106V67.5471ZM43.9106 71.8501V68.9387H47.7559C49.1475 68.9387 50.3926 69.0974 51.4912 69.4148C52.5898 69.7322 53.5237 70.1899 54.2927 70.7881C55.0618 71.3862 55.6477 72.1125 56.0505 72.967C56.4534 73.8215 56.6548 74.7737 56.6548 75.8235C56.6548 77.0686 56.4106 78.1794 55.9224 79.156C55.4341 80.1326 54.7505 80.9565 53.8716 81.6279C52.9927 82.2993 51.9612 82.812 50.7771 83.166C49.593 83.5078 48.3113 83.6787 46.9319 83.6787C45.821 83.6787 44.7163 83.5261 43.6177 83.2209C42.519 82.9158 41.5242 82.4519 40.6331 81.8293C39.7419 81.1946 39.0278 80.395 38.4907 79.4307C37.9536 78.4541 37.6851 77.2944 37.6851 75.9517H43.4163C43.4163 76.5742 43.575 77.1357 43.8923 77.6362C44.2219 78.1245 44.6675 78.5151 45.229 78.8081C45.8027 79.0889 46.4253 79.2292 47.0967 79.2292C47.9023 79.2292 48.5859 79.0828 49.1475 78.7898C49.7212 78.4846 50.1545 78.0696 50.4475 77.5447C50.7527 77.0198 50.9053 76.4155 50.9053 75.7319C50.9053 74.8042 50.7405 74.0596 50.4109 73.498C50.0935 72.9243 49.6296 72.5093 49.0193 72.2529C48.4089 71.9844 47.6765 71.8501 46.822 71.8501H43.9106ZM65.1509 71.3008L60.6099 70.2205L62.1663 56.6523H77.4373V61.175H66.8538L66.2129 66.7964C66.5425 66.6011 67.0613 66.3875 67.7693 66.1555C68.4773 65.9114 69.2708 65.7893 70.1497 65.7893C71.4558 65.7893 72.6155 65.9907 73.6287 66.3936C74.6418 66.7964 75.4963 67.3823 76.1921 68.1514C76.9001 68.9082 77.4312 69.842 77.7852 70.9529C78.1514 72.0637 78.3345 73.3271 78.3345 74.7432C78.3345 75.915 78.1514 77.0381 77.7852 78.1123C77.4189 79.1743 76.8574 80.1265 76.1006 80.9688C75.356 81.7988 74.4099 82.458 73.2625 82.9463C72.115 83.4346 70.7661 83.6787 69.2158 83.6787C68.0439 83.6787 66.9087 83.5017 65.8101 83.1477C64.7114 82.7937 63.7227 82.281 62.8438 81.6096C61.9771 80.926 61.2874 80.0959 60.7747 79.1194C60.2742 78.1428 60.0178 77.0442 60.0056 75.8235H65.7185C65.7795 76.5315 65.9565 77.1418 66.2495 77.6545C66.5425 78.155 66.9392 78.5457 67.4397 78.8264C67.9402 79.095 68.52 79.2292 69.1792 79.2292C69.814 79.2292 70.3511 79.1072 70.7905 78.863C71.23 78.6067 71.5779 78.2588 71.8342 77.8193C72.1028 77.3799 72.2981 76.8672 72.4202 76.2812C72.5422 75.6953 72.6033 75.0667 72.6033 74.3953C72.6033 73.6995 72.5239 73.0769 72.3652 72.5276C72.2065 71.9661 71.9624 71.49 71.6328 71.0994C71.3032 70.6965 70.8821 70.3914 70.3694 70.1838C69.8689 69.9641 69.2646 69.8542 68.5566 69.8542C67.6289 69.8542 66.9026 70.0068 66.3777 70.312C65.8528 70.6172 65.4438 70.9468 65.1509 71.3008ZM99.9043 67.6021V72.3445C99.9043 74.2976 99.6846 75.9883 99.2451 77.4165C98.8179 78.8447 98.1953 80.0227 97.3774 80.9504C96.5718 81.8782 95.6074 82.5679 94.4844 83.0195C93.3735 83.459 92.1406 83.6787 90.7856 83.6787C89.6992 83.6787 88.686 83.5383 87.7461 83.2576C86.8062 82.9768 85.9578 82.5435 85.2009 81.9575C84.4563 81.3594 83.8154 80.6147 83.2783 79.7236C82.7412 78.8325 82.3262 77.7705 82.0332 76.5376C81.7524 75.3047 81.6121 73.907 81.6121 72.3445V67.6021C81.6121 65.6245 81.8257 63.9277 82.2529 62.5117C82.6924 61.0957 83.321 59.9238 84.1389 58.9961C84.9568 58.0684 85.9211 57.3848 87.032 56.9453C88.155 56.5059 89.394 56.2861 90.749 56.2861C91.8354 56.2861 92.8425 56.4265 93.7703 56.7073C94.7102 56.988 95.5586 57.4214 96.3154 58.0073C97.0723 58.5933 97.7131 59.3318 98.238 60.2229C98.7751 61.114 99.1841 62.176 99.4648 63.4089C99.7578 64.6296 99.9043 66.0273 99.9043 67.6021ZM94.1914 73.0586V66.8513C94.1914 65.9358 94.1365 65.1423 94.0266 64.4709C93.929 63.7874 93.7825 63.2075 93.5872 62.7314C93.4041 62.2554 93.1721 61.8708 92.8914 61.5779C92.6106 61.2849 92.2871 61.0713 91.9209 60.937C91.5669 60.7905 91.1763 60.7173 90.749 60.7173C90.2119 60.7173 89.7297 60.8271 89.3025 61.0469C88.8752 61.2666 88.5151 61.6145 88.2222 62.0906C87.9292 62.5544 87.7034 63.1831 87.5447 63.9766C87.3982 64.7578 87.325 65.7161 87.325 66.8513V73.0586C87.325 73.9741 87.3738 74.7737 87.4714 75.4573C87.5813 76.1409 87.7278 76.7268 87.9109 77.2151C88.1062 77.6912 88.3442 78.0818 88.625 78.387C88.9058 78.6799 89.2292 78.8936 89.5955 79.0278C89.9617 79.1621 90.3584 79.2292 90.7856 79.2292C91.3228 79.2292 91.7988 79.1255 92.2139 78.918C92.6289 78.6982 92.9829 78.3503 93.2759 77.8743C93.5811 77.386 93.8069 76.7451 93.9534 75.9517C94.1121 75.1582 94.1914 74.1938 94.1914 73.0586ZM120.778 68.3162V73.2783H102.504V68.3162H120.778ZM114.37 61.23V80.6392H108.986V61.23H114.37Z" fill="#274C5B"/>
</svg>
