<svg width="159" height="159" viewBox="0 0 159 159" fill="none" xmlns="http://www.w3.org/2000/svg">
<circle cx="79.125" cy="79.4375" r="70.875" fill="#F1F1F1"/>
<path d="M158.25 79.4375C158.25 123.137 122.825 158.562 79.125 158.562C35.4255 158.562 0 123.137 0 79.4375C0 35.738 35.4255 0.3125 79.125 0.3125C122.825 0.3125 158.25 35.738 158.25 79.4375ZM3.16119 79.4375C3.16119 121.391 37.1713 155.401 79.125 155.401C121.079 155.401 155.089 121.391 155.089 79.4375C155.089 37.4838 121.079 3.47369 79.125 3.47369C37.1713 3.47369 3.16119 37.4838 3.16119 79.4375Z" fill="#7EB693"/>
<path d="M28.2297 98.072L30.5105 93.6753H32.2244L29.0142 99.575V103.312H27.4321V99.6277L24.2351 93.6753H25.949L28.2297 98.072ZM36.5156 103.444C35.3818 103.444 34.4941 103.115 33.8525 102.456C33.2153 101.792 32.8967 100.88 32.8967 99.72C32.8967 98.5291 33.1934 97.593 33.7866 96.9119C34.3799 96.2307 35.1951 95.8901 36.2322 95.8901C37.1946 95.8901 37.9548 96.1824 38.5129 96.7668C39.071 97.3513 39.3501 98.1555 39.3501 99.1794V100.017H34.4919C34.5139 100.724 34.7051 101.269 35.0654 101.651C35.4258 102.029 35.9333 102.218 36.5881 102.218C37.0188 102.218 37.4187 102.179 37.7878 102.1C38.1614 102.016 38.5613 101.88 38.9875 101.691V102.95C38.6096 103.13 38.2273 103.258 37.8406 103.332C37.4539 103.407 37.0122 103.444 36.5156 103.444ZM36.2322 97.0635C35.74 97.0635 35.3445 97.2195 35.0457 97.5315C34.7512 97.8435 34.5754 98.2983 34.5183 98.896H37.8274C37.8186 98.2939 37.6736 97.8391 37.3923 97.5315C37.1111 97.2195 36.7244 97.0635 36.2322 97.0635ZM45.6716 103.312L45.3618 102.297H45.3091C44.9575 102.741 44.6038 103.044 44.2478 103.207C43.8918 103.365 43.4348 103.444 42.8767 103.444C42.1604 103.444 41.6001 103.251 41.1958 102.864C40.7959 102.478 40.5959 101.93 40.5959 101.223C40.5959 100.471 40.875 99.9045 41.4331 99.5222C41.9912 99.1399 42.8416 98.9312 43.9841 98.896L45.2432 98.8564V98.4675C45.2432 98.0017 45.1333 97.6545 44.9136 97.426C44.6982 97.1931 44.3621 97.0767 43.905 97.0767C43.5315 97.0767 43.1733 97.1316 42.8306 97.2415C42.4878 97.3513 42.1582 97.481 41.8418 97.6304L41.3408 96.5229C41.7363 96.3164 42.1692 96.1604 42.6394 96.0549C43.1096 95.9451 43.5535 95.8901 43.9709 95.8901C44.8982 95.8901 45.5969 96.0923 46.0671 96.4966C46.5417 96.9009 46.7791 97.5359 46.7791 98.4016V103.312H45.6716ZM43.3645 102.258C43.927 102.258 44.3774 102.102 44.7158 101.79C45.0586 101.473 45.23 101.032 45.23 100.465V99.832L44.2939 99.8716C43.5645 99.8979 43.0327 100.021 42.6987 100.241C42.3691 100.456 42.2043 100.788 42.2043 101.236C42.2043 101.561 42.301 101.814 42.4944 101.994C42.6877 102.17 42.9778 102.258 43.3645 102.258ZM52.6392 95.8901C52.9512 95.8901 53.2083 95.9121 53.4104 95.9561L53.2588 97.3997C53.0391 97.3469 52.8105 97.3206 52.5732 97.3206C51.9536 97.3206 51.4504 97.5227 51.0637 97.927C50.6814 98.3313 50.4902 98.8564 50.4902 99.5024V103.312H48.9412V96.022H50.1541L50.3584 97.3074H50.4375C50.6792 96.8723 50.9934 96.5273 51.3801 96.2725C51.7712 96.0176 52.1909 95.8901 52.6392 95.8901ZM59.666 101.236C59.666 101.948 59.4067 102.495 58.8882 102.877C58.3696 103.255 57.627 103.444 56.6602 103.444C55.689 103.444 54.9089 103.297 54.3201 103.003V101.665C55.177 102.06 55.9746 102.258 56.7129 102.258C57.6665 102.258 58.1433 101.97 58.1433 101.394C58.1433 101.21 58.0906 101.056 57.9851 100.933C57.8796 100.81 57.7061 100.682 57.4644 100.551C57.2227 100.419 56.8865 100.269 56.4558 100.102C55.6165 99.7771 55.0474 99.4519 54.7485 99.1267C54.4541 98.8015 54.3069 98.3796 54.3069 97.8611C54.3069 97.2371 54.5574 96.7537 55.0583 96.4109C55.5637 96.0637 56.2493 95.8901 57.115 95.8901C57.9719 95.8901 58.7827 96.0637 59.5474 96.4109L59.0464 97.5776C58.2598 97.2524 57.5984 97.0898 57.0623 97.0898C56.2449 97.0898 55.8362 97.3228 55.8362 97.7886C55.8362 98.0171 55.9417 98.2104 56.1526 98.3687C56.3679 98.5269 56.8337 98.7444 57.55 99.0212C58.1521 99.2542 58.5894 99.4673 58.8618 99.6606C59.1343 99.854 59.3364 100.078 59.4683 100.333C59.6001 100.583 59.666 100.885 59.666 101.236ZM71.3203 99.6541C71.3203 100.845 71.0149 101.774 70.4041 102.442C69.7932 103.11 68.9429 103.444 67.853 103.444C67.1719 103.444 66.5698 103.291 66.0469 102.983C65.5239 102.675 65.1218 102.234 64.8406 101.658C64.5593 101.082 64.4187 100.414 64.4187 99.6541C64.4187 98.4719 64.7219 97.5491 65.3284 96.8855C65.9348 96.2219 66.7896 95.8901 67.8926 95.8901C68.9473 95.8901 69.7822 96.2307 70.3975 96.9119C71.0127 97.5886 71.3203 98.5027 71.3203 99.6541ZM66.0139 99.6541C66.0139 101.337 66.6357 102.179 67.8794 102.179C69.1099 102.179 69.7251 101.337 69.7251 99.6541C69.7251 97.9885 69.1055 97.1558 67.8662 97.1558C67.2158 97.1558 66.7434 97.3711 66.449 97.8018C66.1589 98.2324 66.0139 98.8499 66.0139 99.6541ZM76.7651 97.1953H74.9854V103.312H73.4297V97.1953H72.23V96.4702L73.4297 95.9956V95.521C73.4297 94.6597 73.6318 94.0225 74.0361 93.6094C74.4404 93.1919 75.0579 92.9832 75.8884 92.9832C76.4333 92.9832 76.9695 93.0732 77.4968 93.2534L77.0881 94.4268C76.7058 94.3037 76.3411 94.2422 75.9939 94.2422C75.6423 94.2422 75.3853 94.3521 75.2227 94.5718C75.0645 94.7871 74.9854 95.1123 74.9854 95.5474V96.022H76.7651V97.1953ZM83.2449 103.312H81.6826V93.6753H87.1208V95.0068H83.2449V98.0193H86.877V99.3574H83.2449V103.312ZM93.2644 103.312L92.9546 102.297H92.9019C92.5503 102.741 92.1965 103.044 91.8406 103.207C91.4846 103.365 91.0276 103.444 90.4695 103.444C89.7532 103.444 89.1929 103.251 88.7886 102.864C88.3887 102.478 88.1887 101.93 88.1887 101.223C88.1887 100.471 88.4678 99.9045 89.0259 99.5222C89.584 99.1399 90.4343 98.9312 91.5769 98.896L92.8359 98.8564V98.4675C92.8359 98.0017 92.7261 97.6545 92.5063 97.426C92.291 97.1931 91.9548 97.0767 91.4978 97.0767C91.1243 97.0767 90.7661 97.1316 90.4233 97.2415C90.0806 97.3513 89.751 97.481 89.4346 97.6304L88.9336 96.5229C89.3291 96.3164 89.762 96.1604 90.2322 96.0549C90.7024 95.9451 91.1462 95.8901 91.5637 95.8901C92.491 95.8901 93.1897 96.0923 93.6599 96.4966C94.1345 96.9009 94.3718 97.5359 94.3718 98.4016V103.312H93.2644ZM90.9573 102.258C91.5198 102.258 91.9702 102.102 92.3086 101.79C92.6514 101.473 92.8228 101.032 92.8228 100.465V99.832L91.8867 99.8716C91.1572 99.8979 90.6255 100.021 90.2915 100.241C89.9619 100.456 89.7971 100.788 89.7971 101.236C89.7971 101.561 89.8938 101.814 90.0872 101.994C90.2805 102.17 90.5706 102.258 90.9573 102.258ZM100.232 95.8901C100.544 95.8901 100.801 95.9121 101.003 95.9561L100.852 97.3997C100.632 97.3469 100.403 97.3206 100.166 97.3206C99.5464 97.3206 99.0432 97.5227 98.6565 97.927C98.2742 98.3313 98.083 98.8564 98.083 99.5024V103.312H96.5339V96.022H97.7468L97.9512 97.3074H98.0303C98.272 96.8723 98.5862 96.5273 98.9729 96.2725C99.364 96.0176 99.7837 95.8901 100.232 95.8901ZM108.505 103.312H106.949V98.8169C106.949 98.2588 106.844 97.8435 106.633 97.571C106.422 97.2942 106.092 97.1558 105.644 97.1558C105.046 97.1558 104.607 97.3513 104.325 97.7424C104.049 98.1292 103.91 98.7751 103.91 99.6804V103.312H102.361V96.022H103.574L103.792 96.9778H103.871C104.073 96.6306 104.365 96.3625 104.747 96.1736C105.134 95.9846 105.558 95.8901 106.02 95.8901C107.14 95.8901 107.883 96.2725 108.248 97.0371H108.353C108.568 96.6768 108.872 96.3955 109.263 96.1934C109.654 95.9912 110.102 95.8901 110.607 95.8901C111.478 95.8901 112.11 96.1099 112.506 96.5493C112.906 96.9888 113.106 97.6589 113.106 98.5598V103.312H111.557V98.8169C111.557 98.2588 111.449 97.8435 111.234 97.571C111.023 97.2942 110.693 97.1558 110.245 97.1558C109.643 97.1558 109.201 97.3447 108.92 97.7227C108.643 98.0962 108.505 98.6719 108.505 99.4497V103.312ZM116.817 103.312H115.268V96.022H116.817V103.312ZM115.176 94.0906C115.176 93.8137 115.25 93.6006 115.4 93.4512C115.553 93.3018 115.771 93.2271 116.052 93.2271C116.325 93.2271 116.536 93.3018 116.685 93.4512C116.839 93.6006 116.916 93.8137 116.916 94.0906C116.916 94.3542 116.839 94.563 116.685 94.7168C116.536 94.8662 116.325 94.9409 116.052 94.9409C115.771 94.9409 115.553 94.8662 115.4 94.7168C115.25 94.563 115.176 94.3542 115.176 94.0906ZM125.452 103.312H123.896V98.8301C123.896 98.2676 123.782 97.8479 123.554 97.571C123.33 97.2942 122.971 97.1558 122.479 97.1558C121.824 97.1558 121.345 97.3491 121.042 97.7358C120.739 98.1226 120.587 98.7708 120.587 99.6804V103.312H119.038V96.022H120.251L120.469 96.9778H120.548C120.768 96.6306 121.08 96.3625 121.484 96.1736C121.888 95.9846 122.336 95.8901 122.829 95.8901C124.578 95.8901 125.452 96.78 125.452 98.5598V103.312ZM133.764 96.022V96.8723L132.519 97.103C132.633 97.2568 132.727 97.4458 132.802 97.6699C132.877 97.894 132.914 98.1313 132.914 98.3818C132.914 99.1333 132.655 99.7244 132.136 100.155C131.618 100.586 130.904 100.801 129.994 100.801C129.761 100.801 129.55 100.783 129.361 100.748C129.027 100.955 128.86 101.197 128.86 101.473C128.86 101.64 128.937 101.766 129.091 101.849C129.249 101.933 129.537 101.974 129.954 101.974H131.227C132.031 101.974 132.642 102.146 133.059 102.489C133.477 102.831 133.685 103.326 133.685 103.972C133.685 104.798 133.345 105.435 132.664 105.883C131.982 106.332 130.998 106.556 129.71 106.556C128.717 106.556 127.959 106.38 127.436 106.028C126.913 105.677 126.652 105.176 126.652 104.525C126.652 104.077 126.792 103.699 127.074 103.392C127.359 103.088 127.757 102.877 128.267 102.759C128.06 102.671 127.889 102.53 127.753 102.337C127.621 102.139 127.555 101.933 127.555 101.717C127.555 101.445 127.632 101.214 127.786 101.025C127.939 100.836 128.168 100.649 128.471 100.465C128.093 100.302 127.786 100.039 127.548 99.6738C127.315 99.3047 127.199 98.874 127.199 98.3818C127.199 97.5908 127.447 96.9778 127.944 96.5427C128.445 96.1077 129.157 95.8901 130.08 95.8901C130.286 95.8901 130.501 95.9055 130.726 95.9363C130.954 95.9626 131.125 95.9912 131.24 96.022H133.764ZM128.036 104.446C128.036 104.78 128.186 105.037 128.484 105.218C128.788 105.398 129.212 105.488 129.757 105.488C130.6 105.488 131.229 105.367 131.642 105.125C132.055 104.884 132.261 104.563 132.261 104.163C132.261 103.846 132.147 103.62 131.919 103.484C131.695 103.352 131.275 103.286 130.66 103.286H129.486C129.042 103.286 128.689 103.389 128.425 103.596C128.166 103.807 128.036 104.09 128.036 104.446ZM128.702 98.3818C128.702 98.8389 128.818 99.1904 129.051 99.4365C129.289 99.6826 129.627 99.8057 130.066 99.8057C130.963 99.8057 131.411 99.3267 131.411 98.3687C131.411 97.894 131.299 97.5293 131.075 97.2744C130.855 97.0151 130.519 96.8855 130.066 96.8855C129.618 96.8855 129.278 97.0129 129.045 97.2678C128.816 97.5227 128.702 97.894 128.702 98.3818Z" fill="#274C5B"/>
<path d="M67.6411 78.863V83.3125H49.2207V79.5405L57.8267 70.4219C58.6323 69.4941 59.2732 68.6763 59.7493 67.9683C60.2375 67.2603 60.5916 66.6194 60.8113 66.0457C61.031 65.4597 61.1409 64.9226 61.1409 64.4343C61.1409 63.6409 61.0127 62.9695 60.7563 62.4202C60.5122 61.8708 60.1521 61.4497 59.676 61.1567C59.2 60.8638 58.6201 60.7173 57.9365 60.7173C57.2041 60.7173 56.5754 60.9065 56.0505 61.2849C55.5256 61.6633 55.1228 62.1882 54.842 62.8596C54.5613 63.5188 54.4209 64.2695 54.4209 65.1118H48.6714C48.6714 63.4883 49.062 62.0112 49.8433 60.6807C50.6245 59.3379 51.717 58.2698 53.1208 57.4763C54.5247 56.6707 56.1665 56.2678 58.0464 56.2678C59.9751 56.2678 61.5925 56.573 62.8987 57.1833C64.2048 57.7937 65.1936 58.6665 65.865 59.8018C66.5364 60.937 66.8721 62.3042 66.8721 63.9033C66.8721 64.8066 66.7256 65.6794 66.4326 66.5217C66.1519 67.364 65.7429 68.2002 65.2058 69.0303C64.6687 69.8604 64.0217 70.7087 63.2649 71.5754C62.5081 72.4299 61.6536 73.3333 60.7014 74.2854L56.6731 78.863H67.6411ZM75.9724 71.3008L71.4314 70.2205L72.9878 56.6523H88.2588V61.175H77.6753L77.0344 66.7964C77.364 66.6011 77.8828 66.3875 78.5908 66.1555C79.2988 65.9114 80.0923 65.7893 80.9712 65.7893C82.2773 65.7893 83.437 65.9907 84.4502 66.3936C85.4634 66.7964 86.3179 67.3823 87.0137 68.1514C87.7217 68.9082 88.2527 69.842 88.6067 70.9529C88.9729 72.0637 89.156 73.3271 89.156 74.7432C89.156 75.915 88.9729 77.0381 88.6067 78.1123C88.2405 79.1743 87.679 80.1265 86.9221 80.9688C86.1775 81.7988 85.2314 82.458 84.084 82.9463C82.9365 83.4346 81.5876 83.6787 80.0374 83.6787C78.8655 83.6787 77.7302 83.5017 76.6316 83.1477C75.533 82.7937 74.5442 82.281 73.6653 81.6096C72.7986 80.926 72.1089 80.0959 71.5962 79.1194C71.0957 78.1428 70.8394 77.0442 70.8271 75.8235H76.54C76.6011 76.5315 76.7781 77.1418 77.071 77.6545C77.364 78.155 77.7607 78.5457 78.2612 78.8264C78.7617 79.095 79.3416 79.2292 80.0007 79.2292C80.6355 79.2292 81.1726 79.1072 81.6121 78.863C82.0515 78.6067 82.3994 78.2588 82.6558 77.8193C82.9243 77.3799 83.1196 76.8672 83.2417 76.2812C83.3638 75.6953 83.4248 75.0667 83.4248 74.3953C83.4248 73.6995 83.3455 73.0769 83.1868 72.5276C83.0281 71.9661 82.7839 71.49 82.4543 71.0994C82.1248 70.6965 81.7036 70.3914 81.1909 70.1838C80.6904 69.9641 80.0862 69.8542 79.3782 69.8542C78.4504 69.8542 77.7241 70.0068 77.1992 70.312C76.6743 70.6172 76.2654 70.9468 75.9724 71.3008ZM109.957 68.3162V73.2783H91.6829V68.3162H109.957ZM103.548 61.23V80.6392H98.1648V61.23H103.548Z" fill="#274C5B"/>
</svg>
