<svg width="159" height="159" viewBox="0 0 159 159" fill="none" xmlns="http://www.w3.org/2000/svg">
<circle cx="79.625" cy="79.4375" r="70.875" fill="#F1F1F1"/>
<path d="M158.75 79.4375C158.75 123.137 123.325 158.562 79.625 158.562C35.9255 158.562 0.5 123.137 0.5 79.4375C0.5 35.738 35.9255 0.3125 79.625 0.3125C123.325 0.3125 158.75 35.738 158.75 79.4375ZM3.66119 79.4375C3.66119 121.391 37.6713 155.401 79.625 155.401C121.579 155.401 155.589 121.391 155.589 79.4375C155.589 37.4838 121.579 3.47369 79.625 3.47369C37.6713 3.47369 3.66119 37.4838 3.66119 79.4375Z" fill="#7EB693"/>
<path d="M39.593 103.312L38.6306 100.636H34.9458L34.0032 103.312H32.342L35.9478 93.6357H37.6616L41.2673 103.312H39.593ZM38.2153 99.2783L37.3123 96.6548C37.2463 96.479 37.1541 96.2021 37.0354 95.8242C36.9211 95.4463 36.842 95.1694 36.7981 94.9937C36.6794 95.5342 36.5059 96.1252 36.2773 96.7668L35.4072 99.2783H38.2153ZM45.3147 103.444C44.2117 103.444 43.3723 103.124 42.7966 102.482C42.2253 101.836 41.9397 100.911 41.9397 99.7068C41.9397 98.4807 42.2385 97.5381 42.8362 96.8789C43.4382 96.2197 44.3062 95.8901 45.4399 95.8901C46.209 95.8901 46.9011 96.033 47.5164 96.3186L47.0483 97.5645C46.3936 97.3096 45.853 97.1821 45.4268 97.1821C44.1655 97.1821 43.5349 98.0193 43.5349 99.6936C43.5349 100.511 43.6909 101.126 44.0029 101.539C44.3193 101.948 44.7808 102.152 45.3872 102.152C46.0771 102.152 46.7297 101.981 47.345 101.638V102.99C47.0681 103.152 46.7715 103.269 46.4551 103.339C46.1431 103.409 45.7629 103.444 45.3147 103.444ZM51.7747 102.192C52.1526 102.192 52.5305 102.133 52.9084 102.014V103.181C52.7371 103.255 52.5151 103.317 52.2427 103.365C51.9746 103.418 51.6956 103.444 51.4055 103.444C49.9377 103.444 49.2039 102.671 49.2039 101.124V97.1953H48.2085V96.5098L49.2764 95.9429L49.8037 94.4004H50.7595V96.022H52.8359V97.1953H50.7595V101.098C50.7595 101.471 50.8518 101.748 51.0364 101.928C51.2253 102.104 51.4714 102.192 51.7747 102.192ZM55.9209 103.312H54.3718V96.022H55.9209V103.312ZM54.2795 94.0906C54.2795 93.8137 54.3542 93.6006 54.5037 93.4512C54.6575 93.3018 54.875 93.2271 55.1562 93.2271C55.4287 93.2271 55.6396 93.3018 55.7891 93.4512C55.9429 93.6006 56.0198 93.8137 56.0198 94.0906C56.0198 94.3542 55.9429 94.563 55.7891 94.7168C55.6396 94.8662 55.4287 94.9409 55.1562 94.9409C54.875 94.9409 54.6575 94.8662 54.5037 94.7168C54.3542 94.563 54.2795 94.3542 54.2795 94.0906ZM59.8035 103.312L57.0349 96.022H58.6697L60.1528 100.26C60.4077 100.972 60.5615 101.548 60.6143 101.988H60.667C60.7065 101.671 60.8604 101.095 61.1284 100.26L62.6116 96.022H64.2595L61.4778 103.312H59.8035ZM68.5508 103.444C67.417 103.444 66.5293 103.115 65.8877 102.456C65.2505 101.792 64.9319 100.88 64.9319 99.72C64.9319 98.5291 65.2285 97.593 65.8218 96.9119C66.415 96.2307 67.2302 95.8901 68.2673 95.8901C69.2297 95.8901 69.99 96.1824 70.5481 96.7668C71.1062 97.3513 71.3853 98.1555 71.3853 99.1794V100.017H66.5271C66.5491 100.724 66.7402 101.269 67.1006 101.651C67.4609 102.029 67.9685 102.218 68.6233 102.218C69.054 102.218 69.4539 102.179 69.823 102.1C70.1965 102.016 70.5964 101.88 71.0227 101.691V102.95C70.6448 103.13 70.2625 103.258 69.8757 103.332C69.489 103.407 69.0474 103.444 68.5508 103.444ZM68.2673 97.0635C67.7751 97.0635 67.3796 97.2195 67.0808 97.5315C66.7864 97.8435 66.6106 98.2983 66.5535 98.896H69.8625C69.8538 98.2939 69.7087 97.8391 69.4275 97.5315C69.1462 97.2195 68.7595 97.0635 68.2673 97.0635ZM83.1978 96.5889C83.1978 97.5952 82.8682 98.3665 82.209 98.9026C81.5498 99.4387 80.6116 99.7068 79.3943 99.7068H78.3923V103.312H76.8169V93.6753H79.592C80.7961 93.6753 81.697 93.9214 82.2947 94.4136C82.8967 94.9058 83.1978 95.6309 83.1978 96.5889ZM78.3923 98.3818H79.2295C80.0381 98.3818 80.6313 98.2412 81.0093 97.96C81.3872 97.6787 81.5762 97.2393 81.5762 96.6416C81.5762 96.0879 81.407 95.6748 81.0686 95.4023C80.7302 95.1299 80.2029 94.9937 79.4866 94.9937H78.3923V98.3818ZM88.6558 95.8901C88.9678 95.8901 89.2249 95.9121 89.427 95.9561L89.2754 97.3997C89.0557 97.3469 88.8271 97.3206 88.5898 97.3206C87.9702 97.3206 87.467 97.5227 87.0803 97.927C86.698 98.3313 86.5068 98.8564 86.5068 99.5024V103.312H84.9578V96.022H86.1707L86.375 97.3074H86.4541C86.6958 96.8723 87.01 96.5273 87.3967 96.2725C87.7878 96.0176 88.2075 95.8901 88.6558 95.8901ZM97.2515 99.6541C97.2515 100.845 96.946 101.774 96.3352 102.442C95.7244 103.11 94.874 103.444 93.7842 103.444C93.103 103.444 92.501 103.291 91.978 102.983C91.4551 102.675 91.053 102.234 90.7717 101.658C90.4905 101.082 90.3499 100.414 90.3499 99.6541C90.3499 98.4719 90.6531 97.5491 91.2595 96.8855C91.866 96.2219 92.7207 95.8901 93.8237 95.8901C94.8784 95.8901 95.7134 96.2307 96.3286 96.9119C96.9438 97.5886 97.2515 98.5027 97.2515 99.6541ZM91.9451 99.6541C91.9451 101.337 92.5669 102.179 93.8105 102.179C95.041 102.179 95.6562 101.337 95.6562 99.6541C95.6562 97.9885 95.0366 97.1558 93.7974 97.1558C93.147 97.1558 92.6746 97.3711 92.3801 97.8018C92.0901 98.2324 91.9451 98.8499 91.9451 99.6541ZM101.497 103.444C100.587 103.444 99.8772 103.115 99.3674 102.456C98.8577 101.796 98.6028 100.871 98.6028 99.6804C98.6028 98.4851 98.8599 97.5557 99.374 96.8921C99.8926 96.2241 100.609 95.8901 101.523 95.8901C102.481 95.8901 103.21 96.2439 103.711 96.9514H103.791C103.716 96.4285 103.678 96.0154 103.678 95.7122V93.0557H105.234V103.312H104.021L103.751 102.357H103.678C103.182 103.082 102.455 103.444 101.497 103.444ZM101.912 102.192C102.549 102.192 103.013 102.014 103.303 101.658C103.593 101.298 103.742 100.715 103.751 99.9111V99.6936C103.751 98.7751 103.602 98.1226 103.303 97.7358C103.004 97.3491 102.536 97.1558 101.899 97.1558C101.354 97.1558 100.934 97.3777 100.64 97.8215C100.345 98.261 100.198 98.8894 100.198 99.7068C100.198 100.515 100.341 101.133 100.626 101.559C100.912 101.981 101.341 102.192 101.912 102.192ZM112.591 103.312L112.373 102.357H112.294C112.079 102.695 111.771 102.961 111.371 103.154C110.976 103.348 110.523 103.444 110.013 103.444C109.13 103.444 108.471 103.225 108.036 102.785C107.601 102.346 107.383 101.68 107.383 100.788V96.022H108.945V100.518C108.945 101.076 109.06 101.495 109.288 101.777C109.517 102.053 109.875 102.192 110.363 102.192C111.013 102.192 111.49 101.999 111.793 101.612C112.101 101.221 112.254 100.568 112.254 99.6541V96.022H113.81V103.312H112.591ZM118.958 103.444C117.855 103.444 117.016 103.124 116.44 102.482C115.869 101.836 115.583 100.911 115.583 99.7068C115.583 98.4807 115.882 97.5381 116.48 96.8789C117.082 96.2197 117.95 95.8901 119.083 95.8901C119.853 95.8901 120.545 96.033 121.16 96.3186L120.692 97.5645C120.037 97.3096 119.497 97.1821 119.07 97.1821C117.809 97.1821 117.178 98.0193 117.178 99.6936C117.178 100.511 117.334 101.126 117.646 101.539C117.963 101.948 118.424 102.152 119.031 102.152C119.721 102.152 120.373 101.981 120.989 101.638V102.99C120.712 103.152 120.415 103.269 120.099 103.339C119.787 103.409 119.406 103.444 118.958 103.444ZM125.418 102.192C125.796 102.192 126.174 102.133 126.552 102.014V103.181C126.381 103.255 126.159 103.317 125.886 103.365C125.618 103.418 125.339 103.444 125.049 103.444C123.581 103.444 122.847 102.671 122.847 101.124V97.1953H121.852V96.5098L122.92 95.9429L123.447 94.4004H124.403V96.022H126.479V97.1953H124.403V101.098C124.403 101.471 124.495 101.748 124.68 101.928C124.869 102.104 125.115 102.192 125.418 102.192Z" fill="#274C5B"/>
<path d="M67.1953 78.863V83.3125H48.7749V79.5405L57.3809 70.4219C58.1865 69.4941 58.8274 68.6763 59.3035 67.9683C59.7917 67.2603 60.1458 66.6194 60.3655 66.0457C60.5852 65.4597 60.6951 64.9226 60.6951 64.4343C60.6951 63.6409 60.5669 62.9695 60.3105 62.4202C60.0664 61.8708 59.7063 61.4497 59.2302 61.1567C58.7542 60.8638 58.1743 60.7173 57.4907 60.7173C56.7583 60.7173 56.1296 60.9065 55.6047 61.2849C55.0798 61.6633 54.677 62.1882 54.3962 62.8596C54.1155 63.5188 53.9751 64.2695 53.9751 65.1118H48.2256C48.2256 63.4883 48.6162 62.0112 49.3975 60.6807C50.1787 59.3379 51.2712 58.2698 52.675 57.4763C54.0789 56.6707 55.7207 56.2678 57.6006 56.2678C59.5293 56.2678 61.1467 56.573 62.4529 57.1833C63.759 57.7937 64.7478 58.6665 65.4192 59.8018C66.0906 60.937 66.4263 62.3042 66.4263 63.9033C66.4263 64.8066 66.2798 65.6794 65.9868 66.5217C65.7061 67.364 65.2971 68.2002 64.76 69.0303C64.2229 69.8604 63.5759 70.7087 62.8191 71.5754C62.0623 72.4299 61.2078 73.3333 60.2556 74.2854L56.2273 78.863H67.1953ZM88.6553 75.9883C88.6553 77.6729 88.2585 79.0889 87.4651 80.2363C86.6716 81.3838 85.5852 82.2444 84.2058 82.8181C82.8386 83.3918 81.2761 83.6787 79.5183 83.6787C77.7727 83.6787 76.2041 83.3918 74.8125 82.8181C73.4331 82.2444 72.3406 81.3838 71.5349 80.2363C70.7292 79.0889 70.3264 77.6729 70.3264 75.9883C70.3264 74.8408 70.5522 73.8093 71.0039 72.8938C71.4678 71.9783 72.1086 71.197 72.9265 70.55C73.7566 69.9031 74.7271 69.4087 75.8379 69.0669C76.9609 68.7251 78.1755 68.5542 79.4817 68.5542C81.2395 68.5542 82.8081 68.8594 84.1875 69.4697C85.5791 70.0679 86.6716 70.9224 87.4651 72.0332C88.2585 73.144 88.6553 74.4624 88.6553 75.9883ZM82.9058 75.5671C82.9058 74.7859 82.7593 74.1267 82.4663 73.5896C82.1855 73.0403 81.7888 72.6191 81.2761 72.3262C80.7634 72.021 80.1653 71.8684 79.4817 71.8684C78.7981 71.8684 78.2 72.021 77.6873 72.3262C77.1746 72.6191 76.7717 73.0403 76.4788 73.5896C76.198 74.1267 76.0576 74.7859 76.0576 75.5671C76.0576 76.324 76.2041 76.9832 76.4971 77.5447C76.79 78.094 77.1929 78.5151 77.7056 78.8081C78.2183 79.0889 78.8225 79.2292 79.5183 79.2292C80.2141 79.2292 80.8123 79.0889 81.3127 78.8081C81.8132 78.5151 82.2039 78.094 82.4846 77.5447C82.7654 76.9832 82.9058 76.324 82.9058 75.5671ZM88.0876 63.7385C88.0876 65.1179 87.7214 66.3325 86.989 67.3823C86.2688 68.4199 85.2617 69.2317 83.9678 69.8176C82.6738 70.3914 81.1907 70.6782 79.5183 70.6782C77.8459 70.6782 76.3567 70.3914 75.0505 69.8176C73.7566 69.2317 72.7373 68.4199 71.9927 67.3823C71.2603 66.3325 70.894 65.1179 70.894 63.7385C70.894 62.1272 71.2603 60.7661 71.9927 59.6553C72.7373 58.5444 73.7566 57.7021 75.0505 57.1284C76.3445 56.5547 77.8215 56.2678 79.4817 56.2678C81.1663 56.2678 82.6555 56.5547 83.9495 57.1284C85.2434 57.7021 86.2566 58.5444 86.989 59.6553C87.7214 60.7661 88.0876 62.1272 88.0876 63.7385ZM82.3748 64.0315C82.3748 63.3601 82.2588 62.7803 82.0269 62.292C81.8071 61.7915 81.4836 61.407 81.0564 61.1384C80.6292 60.8577 80.1042 60.7173 79.4817 60.7173C78.8835 60.7173 78.3708 60.8516 77.9436 61.1201C77.5164 61.3765 77.1868 61.7549 76.9548 62.2554C76.7351 62.7437 76.6252 63.3357 76.6252 64.0315C76.6252 64.7151 76.7351 65.3132 76.9548 65.8259C77.1868 66.3264 77.5164 66.7231 77.9436 67.0161C78.3831 67.2969 78.908 67.4373 79.5183 67.4373C80.1409 67.4373 80.6597 67.2969 81.0747 67.0161C81.502 66.7231 81.8254 66.3264 82.0452 65.8259C82.2649 65.3132 82.3748 64.7151 82.3748 64.0315ZM97.1697 71.3008L92.6287 70.2205L94.1851 56.6523H109.456V61.175H98.8726L98.2317 66.7964C98.5613 66.6011 99.0801 66.3875 99.7881 66.1555C100.496 65.9114 101.29 65.7893 102.168 65.7893C103.475 65.7893 104.634 65.9907 105.647 66.3936C106.661 66.7964 107.515 67.3823 108.211 68.1514C108.919 68.9082 109.45 69.842 109.804 70.9529C110.17 72.0637 110.353 73.3271 110.353 74.7432C110.353 75.915 110.17 77.0381 109.804 78.1123C109.438 79.1743 108.876 80.1265 108.119 80.9688C107.375 81.7988 106.429 82.458 105.281 82.9463C104.134 83.4346 102.785 83.6787 101.235 83.6787C100.063 83.6787 98.9275 83.5017 97.8289 83.1477C96.7302 82.7937 95.7415 82.281 94.8625 81.6096C93.9958 80.926 93.3062 80.0959 92.7935 79.1194C92.293 78.1428 92.0366 77.0442 92.0244 75.8235H97.7373C97.7983 76.5315 97.9753 77.1418 98.2683 77.6545C98.5613 78.155 98.958 78.5457 99.4585 78.8264C99.959 79.095 100.539 79.2292 101.198 79.2292C101.833 79.2292 102.37 79.1072 102.809 78.863C103.249 78.6067 103.597 78.2588 103.853 77.8193C104.122 77.3799 104.317 76.8672 104.439 76.2812C104.561 75.6953 104.622 75.0667 104.622 74.3953C104.622 73.6995 104.543 73.0769 104.384 72.5276C104.225 71.9661 103.981 71.49 103.652 71.0994C103.322 70.6965 102.901 70.3914 102.388 70.1838C101.888 69.9641 101.283 69.8542 100.575 69.8542C99.6477 69.8542 98.9214 70.0068 98.3965 70.312C97.8716 70.6172 97.4626 70.9468 97.1697 71.3008Z" fill="#274C5B"/>
</svg>
