<svg width="159" height="159" viewBox="0 0 159 159" fill="none" xmlns="http://www.w3.org/2000/svg">
<circle cx="79.875" cy="79.4375" r="70.875" fill="#F1F1F1"/>
<path d="M159 79.4375C159 123.137 123.575 158.562 79.875 158.562C36.1755 158.562 0.75 123.137 0.75 79.4375C0.75 35.738 36.1755 0.3125 79.875 0.3125C123.575 0.3125 159 35.738 159 79.4375ZM3.91119 79.4375C3.91119 121.391 37.9213 155.401 79.875 155.401C121.829 155.401 155.839 121.391 155.839 79.4375C155.839 37.4838 121.829 3.47369 79.875 3.47369C37.9213 3.47369 3.91119 37.4838 3.91119 79.4375Z" fill="#7EB693"/>
<path d="M63.917 98.4807C63.917 100.05 63.5237 101.269 62.7371 102.139C61.9548 103.009 60.8452 103.444 59.4082 103.444C57.9536 103.444 56.8352 103.014 56.053 102.152C55.2751 101.287 54.8862 100.058 54.8862 98.4675C54.8862 96.8767 55.2773 95.655 56.0596 94.8025C56.8462 93.95 57.9668 93.5237 59.4214 93.5237C60.854 93.5237 61.9614 93.9565 62.7437 94.8223C63.5259 95.688 63.917 96.9075 63.917 98.4807ZM56.5605 98.4807C56.5605 99.6672 56.8 100.568 57.2791 101.183C57.7581 101.794 58.4678 102.1 59.4082 102.1C60.3442 102.1 61.0496 101.796 61.5242 101.19C62.0032 100.583 62.2427 99.6804 62.2427 98.4807C62.2427 97.2986 62.0054 96.4021 61.5308 95.7913C61.0605 95.1804 60.3574 94.875 59.4214 94.875C58.4766 94.875 57.7625 95.1804 57.2791 95.7913C56.8 96.4021 56.5605 97.2986 56.5605 98.4807ZM69.52 95.8901C69.832 95.8901 70.0891 95.9121 70.2913 95.9561L70.1396 97.3997C69.9199 97.3469 69.6914 97.3206 69.4541 97.3206C68.8345 97.3206 68.3313 97.5227 67.9446 97.927C67.5623 98.3313 67.3711 98.8564 67.3711 99.5024V103.312H65.822V96.022H67.0349L67.2393 97.3074H67.3184C67.5601 96.8723 67.8743 96.5273 68.261 96.2725C68.6521 96.0176 69.0718 95.8901 69.52 95.8901ZM77.8059 96.022V96.8723L76.5601 97.103C76.6743 97.2568 76.7688 97.4458 76.8435 97.6699C76.9182 97.894 76.9556 98.1313 76.9556 98.3818C76.9556 99.1333 76.6963 99.7244 76.1777 100.155C75.6592 100.586 74.9451 100.801 74.0354 100.801C73.8025 100.801 73.5916 100.783 73.4026 100.748C73.0686 100.955 72.9016 101.197 72.9016 101.473C72.9016 101.64 72.9785 101.766 73.1323 101.849C73.2905 101.933 73.5784 101.974 73.9958 101.974H75.2681C76.0723 101.974 76.6831 102.146 77.1006 102.489C77.5181 102.831 77.7268 103.326 77.7268 103.972C77.7268 104.798 77.3862 105.435 76.7051 105.883C76.0239 106.332 75.0396 106.556 73.752 106.556C72.7588 106.556 72.0007 106.38 71.4778 106.028C70.9548 105.677 70.6934 105.176 70.6934 104.525C70.6934 104.077 70.834 103.699 71.1152 103.392C71.4009 103.088 71.7986 102.877 72.3083 102.759C72.1018 102.671 71.9304 102.53 71.7942 102.337C71.6624 102.139 71.5964 101.933 71.5964 101.717C71.5964 101.445 71.6733 101.214 71.8271 101.025C71.981 100.836 72.2095 100.649 72.5127 100.465C72.1348 100.302 71.8271 100.039 71.5898 99.6738C71.3569 99.3047 71.2405 98.874 71.2405 98.3818C71.2405 97.5908 71.4888 96.9778 71.9854 96.5427C72.4863 96.1077 73.1982 95.8901 74.1211 95.8901C74.3276 95.8901 74.543 95.9055 74.7671 95.9363C74.9956 95.9626 75.167 95.9912 75.2812 96.022H77.8059ZM72.0776 104.446C72.0776 104.78 72.2271 105.037 72.5259 105.218C72.8291 105.398 73.2532 105.488 73.7981 105.488C74.6418 105.488 75.2703 105.367 75.6833 105.125C76.0964 104.884 76.303 104.563 76.303 104.163C76.303 103.846 76.1887 103.62 75.9602 103.484C75.7361 103.352 75.3164 103.286 74.7012 103.286H73.5278C73.084 103.286 72.7302 103.389 72.4666 103.596C72.2073 103.807 72.0776 104.09 72.0776 104.446ZM72.7434 98.3818C72.7434 98.8389 72.8599 99.1904 73.0928 99.4365C73.3301 99.6826 73.6685 99.8057 74.1079 99.8057C75.0044 99.8057 75.4526 99.3267 75.4526 98.3687C75.4526 97.894 75.3406 97.5293 75.1165 97.2744C74.8967 97.0151 74.5605 96.8855 74.1079 96.8855C73.6597 96.8855 73.3191 97.0129 73.0862 97.2678C72.8577 97.5227 72.7434 97.894 72.7434 98.3818ZM83.7253 103.312L83.4155 102.297H83.3628C83.0112 102.741 82.6575 103.044 82.3015 103.207C81.9456 103.365 81.4885 103.444 80.9304 103.444C80.2141 103.444 79.6538 103.251 79.2495 102.864C78.8496 102.478 78.6497 101.93 78.6497 101.223C78.6497 100.471 78.9287 99.9045 79.4868 99.5222C80.0449 99.1399 80.8953 98.9312 82.0378 98.896L83.2969 98.8564V98.4675C83.2969 98.0017 83.187 97.6545 82.9673 97.426C82.752 97.1931 82.4158 97.0767 81.9587 97.0767C81.5852 97.0767 81.2271 97.1316 80.8843 97.2415C80.5415 97.3513 80.2119 97.481 79.8955 97.6304L79.3945 96.5229C79.79 96.3164 80.2229 96.1604 80.6931 96.0549C81.1633 95.9451 81.6072 95.8901 82.0247 95.8901C82.9519 95.8901 83.6506 96.0923 84.1208 96.4966C84.5955 96.9009 84.8328 97.5359 84.8328 98.4016V103.312H83.7253ZM81.4182 102.258C81.9807 102.258 82.4312 102.102 82.7695 101.79C83.1123 101.473 83.2837 101.032 83.2837 100.465V99.832L82.3477 99.8716C81.6182 99.8979 81.0864 100.021 80.7524 100.241C80.4229 100.456 80.2581 100.788 80.2581 101.236C80.2581 101.561 80.3547 101.814 80.5481 101.994C80.7415 102.17 81.0315 102.258 81.4182 102.258ZM93.4087 103.312H91.853V98.8301C91.853 98.2676 91.7388 97.8479 91.5103 97.571C91.2861 97.2942 90.928 97.1558 90.4358 97.1558C89.781 97.1558 89.302 97.3491 88.9988 97.7358C88.6956 98.1226 88.5439 98.7708 88.5439 99.6804V103.312H86.9949V96.022H88.2078L88.4253 96.9778H88.5044C88.7241 96.6306 89.0361 96.3625 89.4404 96.1736C89.8447 95.9846 90.293 95.8901 90.7852 95.8901C92.5342 95.8901 93.4087 96.78 93.4087 98.5598V103.312ZM97.1133 103.312H95.5642V96.022H97.1133V103.312ZM95.4719 94.0906C95.4719 93.8137 95.5466 93.6006 95.696 93.4512C95.8499 93.3018 96.0674 93.2271 96.3486 93.2271C96.6211 93.2271 96.832 93.3018 96.9814 93.4512C97.1353 93.6006 97.2122 93.8137 97.2122 94.0906C97.2122 94.3542 97.1353 94.563 96.9814 94.7168C96.832 94.8662 96.6211 94.9409 96.3486 94.9409C96.0674 94.9409 95.8499 94.8662 95.696 94.7168C95.5466 94.563 95.4719 94.3542 95.4719 94.0906ZM102.275 103.444C101.172 103.444 100.332 103.124 99.7566 102.482C99.1853 101.836 98.8997 100.911 98.8997 99.7068C98.8997 98.4807 99.1985 97.5381 99.7961 96.8789C100.398 96.2197 101.266 95.8901 102.4 95.8901C103.169 95.8901 103.861 96.033 104.476 96.3186L104.008 97.5645C103.354 97.3096 102.813 97.1821 102.387 97.1821C101.125 97.1821 100.495 98.0193 100.495 99.6936C100.495 100.511 100.651 101.126 100.963 101.539C101.279 101.948 101.741 102.152 102.347 102.152C103.037 102.152 103.69 101.981 104.305 101.638V102.99C104.028 103.152 103.731 103.269 103.415 103.339C103.103 103.409 102.723 103.444 102.275 103.444Z" fill="#274C5B"/>
<path d="M48.134 56.634V83.3125H42.4028V63.1526L36.2139 65.0386V60.6074L47.5664 56.634H48.134ZM74.7393 67.6021V72.3445C74.7393 74.2976 74.5195 75.9883 74.0801 77.4165C73.6528 78.8447 73.0303 80.0227 72.2124 80.9504C71.4067 81.8782 70.4424 82.5679 69.3193 83.0195C68.2085 83.459 66.9756 83.6787 65.6206 83.6787C64.5342 83.6787 63.521 83.5383 62.5811 83.2576C61.6411 82.9768 60.7927 82.5435 60.0359 81.9575C59.2913 81.3594 58.6504 80.6147 58.1133 79.7236C57.5762 78.8325 57.1611 77.7705 56.8682 76.5376C56.5874 75.3047 56.447 73.907 56.447 72.3445V67.6021C56.447 65.6245 56.6606 63.9277 57.0879 62.5117C57.5273 61.0957 58.156 59.9238 58.9739 58.9961C59.7917 58.0684 60.7561 57.3848 61.8669 56.9453C62.99 56.5059 64.229 56.2861 65.584 56.2861C66.6704 56.2861 67.6775 56.4265 68.6052 56.7073C69.5452 56.988 70.3936 57.4214 71.1504 58.0073C71.9072 58.5933 72.5481 59.3318 73.073 60.2229C73.6101 61.114 74.019 62.176 74.2998 63.4089C74.5928 64.6296 74.7393 66.0273 74.7393 67.6021ZM69.0264 73.0586V66.8513C69.0264 65.9358 68.9714 65.1423 68.8616 64.4709C68.7639 63.7874 68.6174 63.2075 68.4221 62.7314C68.239 62.2554 68.0071 61.8708 67.7263 61.5779C67.4456 61.2849 67.1221 61.0713 66.7559 60.937C66.4019 60.7905 66.0112 60.7173 65.584 60.7173C65.0469 60.7173 64.5647 60.8271 64.1375 61.0469C63.7102 61.2666 63.3501 61.6145 63.0571 62.0906C62.7642 62.5544 62.5383 63.1831 62.3796 63.9766C62.2332 64.7578 62.1599 65.7161 62.1599 66.8513V73.0586C62.1599 73.9741 62.2087 74.7737 62.3064 75.4573C62.4163 76.1409 62.5627 76.7268 62.7458 77.2151C62.9412 77.6912 63.1792 78.0818 63.46 78.387C63.7407 78.6799 64.0642 78.8936 64.4304 79.0278C64.7966 79.1621 65.1934 79.2292 65.6206 79.2292C66.1577 79.2292 66.6338 79.1255 67.0488 78.918C67.4639 78.6982 67.8179 78.3503 68.1108 77.8743C68.416 77.386 68.6418 76.7451 68.7883 75.9517C68.947 75.1582 69.0264 74.1938 69.0264 73.0586ZM96.3823 67.6021V72.3445C96.3823 74.2976 96.1626 75.9883 95.7231 77.4165C95.2959 78.8447 94.6733 80.0227 93.8555 80.9504C93.0498 81.8782 92.0854 82.5679 90.9624 83.0195C89.8516 83.459 88.6187 83.6787 87.2637 83.6787C86.1772 83.6787 85.1641 83.5383 84.2241 83.2576C83.2842 82.9768 82.4358 82.5435 81.679 81.9575C80.9343 81.3594 80.2935 80.6147 79.7563 79.7236C79.2192 78.8325 78.8042 77.7705 78.5112 76.5376C78.2305 75.3047 78.0901 73.907 78.0901 72.3445V67.6021C78.0901 65.6245 78.3037 63.9277 78.731 62.5117C79.1704 61.0957 79.7991 59.9238 80.6169 58.9961C81.4348 58.0684 82.3992 57.3848 83.51 56.9453C84.6331 56.5059 85.8721 56.2861 87.2271 56.2861C88.3135 56.2861 89.3206 56.4265 90.2483 56.7073C91.1882 56.988 92.0366 57.4214 92.7935 58.0073C93.5503 58.5933 94.1912 59.3318 94.7161 60.2229C95.2532 61.114 95.6621 62.176 95.9429 63.4089C96.2358 64.6296 96.3823 66.0273 96.3823 67.6021ZM90.6694 73.0586V66.8513C90.6694 65.9358 90.6145 65.1423 90.5046 64.4709C90.407 63.7874 90.2605 63.2075 90.0652 62.7314C89.8821 62.2554 89.6501 61.8708 89.3694 61.5779C89.0886 61.2849 88.7651 61.0713 88.3989 60.937C88.0449 60.7905 87.6543 60.7173 87.2271 60.7173C86.6899 60.7173 86.2078 60.8271 85.7805 61.0469C85.3533 61.2666 84.9932 61.6145 84.7002 62.0906C84.4072 62.5544 84.1814 63.1831 84.0227 63.9766C83.8762 64.7578 83.803 65.7161 83.803 66.8513V73.0586C83.803 73.9741 83.8518 74.7737 83.9495 75.4573C84.0593 76.1409 84.2058 76.7268 84.3889 77.2151C84.5842 77.6912 84.8223 78.0818 85.103 78.387C85.3838 78.6799 85.7073 78.8936 86.0735 79.0278C86.4397 79.1621 86.8364 79.2292 87.2637 79.2292C87.8008 79.2292 88.2769 79.1255 88.6919 78.918C89.1069 78.6982 89.4609 78.3503 89.7539 77.8743C90.0591 77.386 90.2849 76.7451 90.4314 75.9517C90.5901 75.1582 90.6694 74.1938 90.6694 73.0586ZM99.7698 63.1892V61.7793C99.7698 60.7661 99.9895 59.8445 100.429 59.0144C100.868 58.1843 101.521 57.519 102.388 57.0186C103.267 56.5181 104.341 56.2678 105.611 56.2678C106.929 56.2678 108.022 56.5181 108.888 57.0186C109.755 57.519 110.402 58.1843 110.829 59.0144C111.269 59.8445 111.489 60.7661 111.489 61.7793V63.1892C111.489 64.178 111.269 65.0874 110.829 65.9175C110.402 66.7476 109.755 67.4128 108.888 67.9133C108.034 68.4138 106.954 68.6641 105.647 68.6641C104.366 68.6641 103.285 68.4138 102.406 67.9133C101.54 67.4128 100.881 66.7476 100.429 65.9175C99.9895 65.0874 99.7698 64.178 99.7698 63.1892ZM103.505 61.7793V63.1892C103.505 63.592 103.584 63.9705 103.743 64.3245C103.902 64.6785 104.14 64.9653 104.457 65.1851C104.775 65.4048 105.171 65.5146 105.647 65.5146C106.136 65.5146 106.532 65.4048 106.838 65.1851C107.143 64.9653 107.369 64.6785 107.515 64.3245C107.674 63.9705 107.753 63.592 107.753 63.1892V61.7793C107.753 61.3643 107.674 60.9797 107.515 60.6257C107.369 60.2595 107.137 59.9666 106.819 59.7468C106.502 59.5271 106.099 59.4172 105.611 59.4172C105.147 59.4172 104.756 59.5271 104.439 59.7468C104.134 59.9666 103.902 60.2595 103.743 60.6257C103.584 60.9797 103.505 61.3643 103.505 61.7793ZM112.477 78.1855V76.7756C112.477 75.7747 112.697 74.8591 113.136 74.0291C113.588 73.199 114.247 72.5337 115.114 72.0332C115.993 71.5327 117.073 71.2825 118.355 71.2825C119.661 71.2825 120.748 71.5327 121.614 72.0332C122.481 72.5337 123.128 73.199 123.555 74.0291C123.995 74.8591 124.214 75.7747 124.214 76.7756V78.1855C124.214 79.1865 123.995 80.1021 123.555 80.9321C123.128 81.7622 122.481 82.4275 121.614 82.928C120.76 83.4285 119.686 83.6787 118.392 83.6787C117.098 83.6787 116.011 83.4285 115.132 82.928C114.253 82.4275 113.588 81.7622 113.136 80.9321C112.697 80.1021 112.477 79.1865 112.477 78.1855ZM116.231 76.7756V78.1855C116.231 78.6006 116.323 78.9851 116.506 79.3391C116.689 79.6931 116.945 79.98 117.275 80.1997C117.604 80.4194 117.977 80.5293 118.392 80.5293C118.965 80.5293 119.399 80.4194 119.692 80.1997C119.997 79.98 120.204 79.6931 120.314 79.3391C120.424 78.9851 120.479 78.6006 120.479 78.1855V76.7756C120.479 76.3606 120.4 75.9761 120.241 75.6221C120.094 75.2681 119.863 74.9812 119.545 74.7615C119.228 74.5417 118.831 74.4319 118.355 74.4319C117.879 74.4319 117.482 74.5417 117.165 74.7615C116.847 74.9812 116.609 75.2681 116.451 75.6221C116.304 75.9761 116.231 76.3606 116.231 76.7756ZM119.783 60.4792L106.764 81.3167L104.036 79.9067L117.055 59.0693L119.783 60.4792Z" fill="#274C5B"/>
</svg>
