<svg width="46" height="46" viewBox="0 0 46 46" fill="none" xmlns="http://www.w3.org/2000/svg">
<circle cx="22.75" cy="22.5371" r="22.5" fill="#EFF6F1"/>
<path d="M30.7451 18.0059C30.1639 18.2585 29.5489 18.4249 28.9196 18.4998C29.581 18.1126 30.0783 17.4973 30.3184 16.7695C29.6931 17.1352 29.0102 17.3917 28.2988 17.5282C27.9993 17.2142 27.639 16.9645 27.24 16.7941C26.8409 16.6238 26.4114 16.5363 25.9775 16.5371C24.2207 16.5371 22.799 17.9381 22.799 19.6652C22.7978 19.9054 22.8253 20.1449 22.881 20.3786C21.6213 20.3196 20.3878 19.9982 19.2594 19.4351C18.1309 18.872 17.1325 18.0796 16.3279 17.1085C16.0456 17.5844 15.8963 18.1273 15.8956 18.6806C15.8956 19.7653 16.4615 20.724 17.316 21.2857C16.8098 21.2737 16.3139 21.1397 15.8705 20.8951V20.9339C15.8705 22.4511 16.968 23.7133 18.4207 24.0006C18.1475 24.0734 17.866 24.1103 17.5833 24.1104C17.3827 24.1107 17.1826 24.0912 16.9858 24.0522C17.3896 25.2951 18.565 26.199 19.9573 26.2248C18.8259 27.0967 17.4369 27.5679 16.0086 27.5645C15.7551 27.5641 15.5018 27.549 15.25 27.5193C16.703 28.4471 18.3921 28.9379 20.1161 28.9332C25.9707 28.9332 29.1691 24.1652 29.1691 20.03C29.1691 19.8944 29.1656 19.7588 29.1591 19.6265C29.7799 19.1849 30.317 18.6361 30.7451 18.0059Z" fill="#274C5B"/>
</svg>
